<?xml version="1.0" standalone="no"?>
<!DOCTYPE svg PUBLIC "-//W3C//DTD SVG 1.1//EN" "http://www.w3.org/Graphics/SVG/1.1/DTD/svg11.dtd" >
<svg xmlns="http://www.w3.org/2000/svg">
<metadata></metadata>
<defs>
<font id="adihaus_cyr_regregular" horiz-adv-x="1024" >
<font-face units-per-em="2048" ascent="1638" descent="-410" />
<missing-glyph horiz-adv-x="509" />
<glyph unicode=" "  horiz-adv-x="509" />
<glyph unicode="&#x09;" horiz-adv-x="509" />
<glyph unicode="&#xa0;" horiz-adv-x="509" />
<glyph unicode="!" horiz-adv-x="647" d="M266 0v172h176v-172h-176zM270 1458h170l-22 -1048h-127z" />
<glyph unicode="&#x22;" horiz-adv-x="866" d="M180 1110v348h162v-348h-162zM524 1110v348h162v-348h-162z" />
<glyph unicode="#" horiz-adv-x="1337" d="M158 465v131h204l48 289h-189v135h207l70 440h153l-71 -440h325l70 440h149l-69 -440h178v-135h-197l-47 -289h182v-131h-202l-74 -465h-152l74 465h-328l-71 -465h-152l74 465h-182zM512 596h326l47 289h-326z" />
<glyph unicode="$" horiz-adv-x="1220" d="M86 180l107 107q82 -82 164.5 -118t187.5 -40v543l-41 4q-84 8 -153.5 41t-112.5 69q-113 100 -113 273q0 174 109.5 283.5t302.5 125.5v183h122v-183q119 -6 207 -44t174 -113l-100 -101q-59 53 -125.5 85t-161.5 38v-530l64 -10q51 -8 90 -17.5t69.5 -22t56 -27.5 t48.5 -36q59 -51 92 -124t33 -165q0 -90 -32 -161.5t-90 -125t-141 -85t-184 -37.5v-225h-122v221q-145 6 -250 51t-201 141zM279 1065q0 -111 65 -168q43 -35 95.5 -53.5t105.5 -26.5v516q-129 -10 -197.5 -81.5t-68.5 -186.5zM653 129q139 10 218 79.5t79 188.5 q0 57 -18.5 104.5t-52.5 78.5q-51 45 -105.5 55t-120.5 20v-526z" />
<glyph unicode="%" horiz-adv-x="1705" d="M133 981v215q0 127 78 202t199 75q119 0 197.5 -75t78.5 -202v-215q0 -125 -79 -199.5t-197 -74.5q-121 0 -199 74.5t-78 199.5zM250 985q0 -84 38 -130t122 -46t121.5 47t37.5 129v207q0 82 -37.5 130t-121.5 48q-86 0 -123 -47t-37 -131v-207zM451 0l684 1458h122 l-684 -1458h-122zM1022 262v215q0 127 78 202t198 75q119 0 198 -75t79 -202v-215q0 -127 -79 -201.5t-198 -74.5q-121 0 -198.5 74.5t-77.5 201.5zM1139 266q0 -84 36.5 -131t122.5 -47q84 0 122 48t38 130v207q0 82 -38 130t-122 48q-86 0 -122.5 -47t-36.5 -131v-207z " />
<glyph unicode="&#x26;" horiz-adv-x="1513" d="M158 412q0 82 26.5 145.5t70.5 114.5t101.5 93t116.5 83q-27 33 -54.5 67.5t-51 73.5t-38 83t-14.5 93q0 66 23.5 121t67 96t102.5 64.5t129 23.5q68 0 126 -23.5t101 -64.5t66.5 -97t23.5 -122q0 -88 -46 -150.5t-115 -109.5q-20 -16 -41 -29q-16 -12 -36 -23t-32 -22 l373 -448q23 33 38 66.5t24 72.5t14.5 86t5.5 109h147q-2 -139 -32.5 -250t-102.5 -197l223 -268h-194l-131 160q-23 -20 -60 -50t-90 -56.5t-122.5 -46t-158.5 -19.5q-106 0 -191 30.5t-145.5 86t-92 133t-31.5 174.5zM309 416q0 -66 22.5 -119t63.5 -92t97.5 -59.5 t123.5 -20.5q82 0 166 28.5t179 112.5l-402 484q-47 -33 -92 -66t-80 -72t-56.5 -87t-21.5 -109zM469 1167q0 -51 29.5 -101t101.5 -138q10 6 22.5 14t24.5 19q14 8 31 20q51 35 91 77t40 105q0 74 -49 124t-123 50q-76 0 -122 -48t-46 -122z" />
<glyph unicode="'" horiz-adv-x="522" d="M180 1110v348h162v-348h-162z" />
<glyph unicode="(" horiz-adv-x="610" d="M188 195v1069q0 53 7.5 106t35.5 105q29 51 64 89t84 87l100 -101q-35 -35 -62.5 -63.5t-47.5 -69.5q-33 -66 -33 -166v-1044q0 -100 33 -166q20 -41 47.5 -69.5t62.5 -63.5l-100 -101q-49 49 -84 87t-64 90q-29 51 -36 104t-7 107z" />
<glyph unicode=")" horiz-adv-x="610" d="M127 -88l63.5 63.5t49.5 69.5q16 31 22 72t6 90v1044q0 49 -6 90t-22 72q-20 41 -49 69.5t-64 63.5l104 105q49 -49 84 -87t64 -89t35 -104.5t6 -106.5v-1069q0 -53 -6 -106.5t-35 -104.5t-63.5 -89t-84.5 -88z" />
<glyph unicode="*" horiz-adv-x="970" d="M137 967l246 133l-246 135l60 98l237 -145l-8 280h119l-8 -280l239 145l58 -98l-246 -135l246 -133l-58 -101l-239 146l8 -281h-119l8 281l-237 -146z" />
<glyph unicode="+" horiz-adv-x="1069" d="M106 479v137h361v357h137v-357h359v-137h-359v-360h-137v360h-361z" />
<glyph unicode="," horiz-adv-x="540" d="M180 180h180v-313l-180 -162v475z" />
<glyph unicode="-" horiz-adv-x="872" d="M156 483v138h561v-138h-561z" />
<glyph unicode="." horiz-adv-x="552" d="M180 0v193h193v-193h-193z" />
<glyph unicode="/" horiz-adv-x="727" d="M0 -152l584 1762h145l-584 -1762h-145z" />
<glyph unicode="0" horiz-adv-x="1081" d="M141 389v680q0 90 31 165t84 127t126 80.5t159 28.5t158.5 -28.5t126 -80.5t84 -127t30.5 -165v-680q0 -90 -30.5 -164.5t-84 -127t-126 -81t-158.5 -28.5t-159 28.5t-126 81t-84 127t-31 164.5zM289 397q0 -121 64.5 -199.5t187.5 -78.5t187.5 78.5t64.5 199.5v664 q0 121 -64.5 199.5t-187.5 78.5t-187.5 -78.5t-64.5 -199.5v-664z" />
<glyph unicode="1" horiz-adv-x="1081" d="M262 1055v168l273 235h147v-1458h-147v1294z" />
<glyph unicode="2" horiz-adv-x="1081" d="M145 0v131l576 731q41 53 61.5 104.5t20.5 110.5q0 119 -66.5 190.5t-187.5 71.5q-51 0 -97 -14t-81 -47t-55.5 -83t-20.5 -120h-148q0 86 29 159t81 125t126 81.5t166 29.5q90 0 163.5 -27.5t127 -78.5t82 -124t28.5 -163q0 -88 -28.5 -152.5t-87.5 -142.5l-510 -651 h626v-131h-805z" />
<glyph unicode="3" horiz-adv-x="1081" d="M92 371h148q4 -68 28.5 -116t63.5 -79t87 -45t101 -14q119 0 200 73.5t81 208.5q0 133 -68.5 208t-218.5 75h-31v129h31q135 0 197.5 70.5t62.5 193.5q0 131 -73.5 198.5t-180.5 67.5q-117 0 -184.5 -65.5t-77.5 -177.5h-147q6 88 39.5 157.5t88 117.5t126 74t155.5 26 q88 0 163 -29t127 -80t82 -125t30 -162q0 -236 -197 -323q223 -85 223 -357q0 -100 -33.5 -177t-91 -129t-136.5 -78.5t-167 -26.5q-86 0 -161.5 22.5t-133 70.5t-93.5 120.5t-40 171.5z" />
<glyph unicode="4" horiz-adv-x="1081" d="M88 231v134l526 1093h158l-526 -1093h424v413h145v-413h178v-134h-178v-231h-145v231h-582z" />
<glyph unicode="5" horiz-adv-x="1081" d="M150 344h147q14 -111 72.5 -169t175.5 -58q113 0 180 67q29 29 45 64t23.5 73.5t9.5 79.5t2 80q0 68 -9.5 131.5t-35 112.5t-73.5 80t-128 31q-96 0 -157.5 -39t-84.5 -105h-133v766h738v-131h-605v-463q43 47 110 74t153 27q82 0 145 -25t106 -68q39 -41 64 -87t37 -97 t16 -103.5t4 -103.5q0 -111 -19.5 -210t-96.5 -177q-51 -51 -122 -79.5t-169 -28.5q-96 0 -171 28.5t-122 75.5q-47 49 -71.5 112.5t-30.5 141.5z" />
<glyph unicode="6" horiz-adv-x="1081" d="M139 408q0 78 22.5 156.5t69.5 170.5l359 723h151l-325 -655q68 31 153 31q86 0 156 -31t119 -86t76.5 -131t27.5 -166q0 -92 -28.5 -172t-81 -137.5t-127 -90t-166.5 -32.5t-168 29.5t-128 85t-81 133t-29 172.5zM287 414q0 -135 69.5 -215t186.5 -80t187.5 80t70.5 215 q0 61 -16.5 114.5t-49.5 93.5t-81 63.5t-111 23.5q-117 0 -186.5 -80t-69.5 -215z" />
<glyph unicode="7" horiz-adv-x="1081" d="M162 1098v360h809v-131l-506 -1327h-156l506 1327h-508v-229h-145z" />
<glyph unicode="8" horiz-adv-x="1081" d="M111 401q0 129 63.5 215t155.5 140q-86 49 -138.5 129t-52.5 194q0 86 30 158t84 124t128 80.5t160 28.5t159.5 -28.5t128 -80.5t84 -124t29.5 -158q0 -115 -51 -194.5t-137 -128.5q92 -53 154.5 -139.5t62.5 -215.5q0 -92 -33 -167.5t-91.5 -131t-137 -85t-168.5 -29.5 t-169 29.5t-137.5 85t-91 131t-32.5 167.5zM258 403q0 -61 21.5 -112t59.5 -90t90 -60.5t112 -21.5q59 0 111.5 21.5t90 60.5t59 90t21.5 112t-21.5 112.5t-59 90.5t-90 60.5t-111.5 21.5t-111.5 -21.5t-90.5 -60.5t-59.5 -90t-21.5 -113zM287 1077q0 -117 70.5 -188.5 t183.5 -71.5t183.5 71.5t70.5 188.5q0 115 -71 188.5t-183 73.5q-113 0 -183.5 -73.5t-70.5 -188.5z" />
<glyph unicode="9" horiz-adv-x="1081" d="M133 1038q0 92 28.5 172t81 137.5t127 90t167.5 32.5q92 0 167.5 -29.5t128 -85t81 -133t28.5 -171.5q0 -78 -22.5 -157t-69.5 -171l-358 -723h-154l328 655q-68 -31 -156 -30q-86 0 -155.5 30.5t-119 86t-76 131t-26.5 165.5zM281 1044q0 -61 16 -114t48 -93t80 -63.5 t112 -23.5q117 0 187.5 79.5t70.5 214.5t-71 215t-187 80q-117 0 -186.5 -79.5t-69.5 -215.5z" />
<glyph unicode=":" horiz-adv-x="608" d="M236 0v193h192v-193h-192zM236 616v193h192v-193h-192z" />
<glyph unicode=";" horiz-adv-x="608" d="M236 616v193h192v-193h-192zM240 180h180v-313l-180 -162v475z" />
<glyph unicode="&#x3c;" horiz-adv-x="1069" d="M195 483v135l677 345v-158l-512 -254l512 -254v-158z" />
<glyph unicode="=" horiz-adv-x="1069" d="M106 309v135h857v-135h-857zM106 655v138h857v-138h-857z" />
<glyph unicode="&#x3e;" horiz-adv-x="1069" d="M195 139v158l512 254l-512 254v158l677 -345v-135z" />
<glyph unicode="?" horiz-adv-x="1017" d="M156 1096q0 78 28.5 146.5t80.5 118.5t122 79.5t154 29.5q80 0 150.5 -27.5t121.5 -76.5t81 -117.5t30 -150.5q0 -72 -26 -130.5t-67 -117.5l-167 -242q-18 -29 -27.5 -61.5t-9.5 -57.5v-79h-148v82q0 59 15.5 102t48.5 90l166 240q29 43 48 81.5t19 92.5 q0 104 -65.5 172.5t-169.5 68.5q-55 0 -99.5 -19.5t-75 -53t-47 -77.5t-16.5 -93h-147zM465 0v172h176v-172h-176z" />
<glyph unicode="@" horiz-adv-x="1816" d="M188 727q0 156 59.5 292t161 236.5t237.5 157.5t290 57q147 0 274 -48t220.5 -132t146.5 -197.5t53 -244.5q0 -96 -30.5 -194.5t-87 -176.5t-136.5 -127t-178 -49q-49 0 -78.5 13.5t-46 35t-23 45t-6.5 45.5q-29 -55 -91 -97t-140 -42q-115 0 -190.5 81t-75.5 228 q0 127 31.5 227.5t83 169t116 105.5t131.5 37q90 0 146.5 -37t79.5 -88l18 102h129l-102 -565q-4 -23 -7.5 -47.5t1 -46t18.5 -34.5t45 -13q55 0 104.5 38t85 99t56 138t20.5 153q0 109 -45 201t-124 158.5t-182 103.5t-220 37q-127 0 -237.5 -48.5t-193.5 -133.5 t-130 -197.5t-47 -241.5q0 -139 47 -254t130 -196.5t194.5 -126t238.5 -44.5q145 0 276 33t230 101l63 -99q-115 -82 -258 -117.5t-317 -35.5q-156 0 -291 52t-234.5 149.5t-157 233.5t-57.5 304zM686 625q0 -94 39 -149.5t109 -55.5q47 0 87 25.5t72.5 67.5t54 96.5 t31.5 113.5q2 8 5.5 38t5.5 38q12 94 -29 161.5t-141 67.5q-43 0 -85 -30.5t-75 -84t-53.5 -127t-20.5 -161.5z" />
<glyph unicode="A" horiz-adv-x="1251" d="M25 0l536 1458h131l535 -1458h-166l-117 330h-637l-117 -330h-165zM354 465h545l-270 770z" />
<glyph unicode="B" horiz-adv-x="1368" d="M211 0v1458h549q94 0 174 -26.5t136 -76.5t88 -122t32 -164q0 -117 -61.5 -201t-153.5 -118q104 -39 170.5 -127.5t66.5 -219.5q0 -98 -31.5 -173.5t-89 -127t-137.5 -77t-176 -25.5h-567zM367 139h397q135 0 214 73t79 196t-79 194.5t-214 71.5h-397v-535zM367 813h381 q61 0 113 15.5t90 46t60.5 78.5t22.5 114t-22.5 113t-60.5 77.5t-90 46t-113 15.5h-381v-506z" />
<glyph unicode="C" horiz-adv-x="1304" d="M156 729q0 117 2 204t15 155.5t41 124t79 106.5q74 74 169 112.5t204 38.5q98 0 182 -29.5t150.5 -85t110.5 -136t62 -183.5h-159q-29 135 -119 215t-227 80q-72 0 -138.5 -26.5t-113.5 -75.5q-35 -35 -55.5 -75t-31 -96.5t-13.5 -135t-3 -193.5t3 -193.5t13.5 -135 t31 -96.5t55.5 -75q47 -49 113.5 -75.5t138.5 -26.5q137 0 229 80t121 215h155q-18 -102 -62 -183t-110.5 -136.5t-150.5 -85t-182 -29.5q-109 0 -204 39t-169 112q-51 51 -79 106.5t-41 124t-15 155.5t-2 204z" />
<glyph unicode="D" horiz-adv-x="1378" d="M211 0v1458h500q115 0 209 -34.5t159 -100.5q57 -57 87 -126t42.5 -143.5t13.5 -153.5t1 -155t-1 -159.5t-13.5 -164.5t-42 -154.5t-87.5 -131.5q-66 -66 -160 -100.5t-208 -34.5h-500zM367 139h317q86 0 157.5 23.5t129.5 83.5q37 39 57.5 97t28.5 125t9 138t1 139 t-1 134.5t-9 127t-28.5 114t-57.5 91.5q-57 59 -129 83t-158 24h-317v-1180z" />
<glyph unicode="E" horiz-adv-x="1228" d="M211 0v1458h905v-139h-749v-514h639v-139h-639v-527h749v-139h-905z" />
<glyph unicode="F" horiz-adv-x="1187" d="M211 0v1458h905v-139h-749v-537h639v-139h-639v-643h-156z" />
<glyph unicode="G" horiz-adv-x="1331" d="M156 729q0 117 2 204t15 155.5t41 124t79 106.5q151 151 370 151h3q104 0 191 -31.5t152.5 -90t107.5 -138.5t59 -176h-156q-31 139 -124 218t-230 79q-72 0 -138.5 -27.5t-113.5 -76.5q-35 -35 -55.5 -75t-31 -95.5t-13.5 -134t-3 -193.5t3 -193.5t13.5 -135t31 -96.5 t55.5 -75q47 -49 113.5 -75.5t138.5 -26.5q80 0 152.5 31.5t123.5 93.5q45 53 63.5 115.5t18.5 148.5v111h-358v137h514v-232q0 -127 -29 -216t-96 -160q-78 -84 -177.5 -126t-211.5 -42q-109 0 -204 39t-169 112q-51 51 -79 106.5t-41 124t-15 155.5t-2 204z" />
<glyph unicode="H" horiz-adv-x="1425" d="M211 0v1458h156v-653h692v653h155v-1458h-155v666h-692v-666h-156z" />
<glyph unicode="I" horiz-adv-x="577" d="M211 0v1458h156v-1458h-156z" />
<glyph unicode="J" horiz-adv-x="1026" d="M47 119l105 104q39 -41 89 -68.5t140 -27.5q143 0 221 87t78 249v995h156v-1016q0 -104 -34 -189t-94.5 -143.5t-143.5 -90t-183 -31.5q-104 0 -185 31.5t-149 99.5z" />
<glyph unicode="K" horiz-adv-x="1331" d="M211 0v1458h156v-837l680 837h190l-459 -563l525 -895h-185l-444 776l-307 -368v-408h-156z" />
<glyph unicode="L" horiz-adv-x="1173" d="M211 0v1458h156v-1319h745v-139h-901z" />
<glyph unicode="M" horiz-adv-x="1671" d="M211 0v1458h156l475 -1034l463 1034h155v-1458h-155v1108l-400 -879h-133l-405 879v-1108h-156z" />
<glyph unicode="N" horiz-adv-x="1499" d="M211 0v1458h147l775 -1165v1165h155v-1458h-147l-774 1169v-1169h-156z" />
<glyph unicode="O" horiz-adv-x="1331" d="M156 729q0 117 2 204t15 155.5t41 124t79 106.5q151 151 370 151h3q221 0 372 -151q51 -51 79 -106.5t41 -124t15.5 -155.5t2.5 -204t-2.5 -204t-15.5 -155.5t-40.5 -124t-79.5 -106.5q-74 -74 -168 -112.5t-204 -38.5q-221 0 -373 151q-51 51 -79 106.5t-41 124 t-15 155.5t-2 204zM311 729q0 -115 3 -193.5t13.5 -134t31 -95.5t55.5 -75q47 -49 113.5 -76.5t138.5 -27.5t138 27.5t114 76.5q35 35 55 75t30.5 95.5t13.5 134t3 193.5t-3 193.5t-13.5 134t-31 95.5t-54.5 75q-47 49 -114 76.5t-138 27.5q-72 0 -138.5 -27.5t-113.5 -76.5 q-35 -35 -55.5 -75t-31 -95.5t-13.5 -134t-3 -193.5z" />
<glyph unicode="P" horiz-adv-x="1290" d="M211 0v1458h543q100 0 183 -29.5t142.5 -86t92 -135.5t32.5 -177t-32.5 -178t-92 -135t-142.5 -86t-183 -31h-387v-600h-156zM367 739h372q137 0 223.5 73t86.5 218t-86 217t-224 72h-372v-580z" />
<glyph unicode="Q" horiz-adv-x="1329" d="M156 729q0 117 2 204t15 155.5t41 124t79 106.5q151 151 370 151h3q221 0 372 -151q51 -51 79 -106.5t41 -124t15.5 -155.5t2.5 -204q0 -104 -2.5 -185t-11.5 -145.5t-29.5 -117t-57.5 -99.5l160 -159l-94 -95l-162 162q-133 -102 -313 -102q-221 0 -373 151 q-51 51 -79 106.5t-41 124t-15 155.5t-2 204zM311 729q0 -115 3 -193.5t13.5 -134t31 -95.5t55.5 -75q47 -49 113.5 -76.5t138.5 -27.5q115 0 206 70l-184 184l94 94l179 -178q20 33 31.5 72t17.5 89t8 116.5t2 154.5q0 115 -3 193.5t-13.5 134t-31 95.5t-54.5 75 q-47 49 -114 76.5t-138 27.5q-72 0 -138.5 -27.5t-113.5 -76.5q-35 -35 -55.5 -75t-31 -95.5t-13.5 -134t-3 -193.5z" />
<glyph unicode="R" horiz-adv-x="1343" d="M211 0v1458h559q94 0 174 -27.5t137.5 -80t89 -128t31.5 -169.5q0 -160 -88 -261.5t-229 -129.5l346 -662h-182l-332 647h-350v-647h-156zM367 784h389q129 0 210 66t81 201t-81 201.5t-210 66.5h-389v-535z" />
<glyph unicode="S" horiz-adv-x="1204" d="M86 180l107 107q90 -90 182 -125t215 -35q160 0 252 70.5t92 199.5q0 57 -17.5 104.5t-52.5 78.5t-72.5 44t-117.5 25l-170 27q-174 29 -268 110q-111 98 -111 273q0 92 32.5 169t93 130t146.5 82.5t195 29.5q139 0 239.5 -37.5t194.5 -121.5l-100 -101q-68 61 -146 93 t-194 32q-147 0 -227 -73.5t-80 -196.5q0 -111 65 -168q35 -29 87 -49.5t110 -30.5l159 -24q51 -8 91 -17.5t71 -22t56.5 -27.5t48.5 -36q123 -105 123 -289q0 -96 -36 -172.5t-102.5 -130t-160 -82t-205.5 -28.5q-164 0 -281 45t-219 147z" />
<glyph unicode="T" horiz-adv-x="1122" d="M61 1319v139h1000v-139h-422v-1319h-156v1319h-422z" />
<glyph unicode="U" horiz-adv-x="1398" d="M190 481v977h156v-964q0 -84 24.5 -152t70.5 -115t111.5 -73.5t145.5 -26.5t145.5 26.5t111.5 73.5t72 115t26 152v964h155v-977q0 -109 -37.5 -200t-106.5 -156.5t-162 -101t-204 -35.5t-204 35.5t-160.5 101t-105.5 157t-38 199.5z" />
<glyph unicode="V" horiz-adv-x="1118" d="M16 1458h164l379 -1179l379 1179h164l-479 -1458h-127z" />
<glyph unicode="W" horiz-adv-x="1748" d="M33 1458h166l284 -1175l322 1175h139l322 -1175l284 1175h166l-373 -1458h-145l-324 1167l-323 -1167h-145z" />
<glyph unicode="X" horiz-adv-x="1128" d="M31 0l446 748l-418 710h181l323 -575l324 575h180l-420 -710l451 -748h-180l-355 612l-356 -612h-176z" />
<glyph unicode="Y" horiz-adv-x="1052" d="M16 1458h168l344 -698l340 698h168l-430 -856v-602h-155v602z" />
<glyph unicode="Z" horiz-adv-x="1138" d="M117 0v147l729 1172h-701v139h877v-131l-735 -1188h735v-139h-905z" />
<glyph unicode="[" horiz-adv-x="641" d="M188 -152v1762h363v-131h-215v-1499h215v-132h-363z" />
<glyph unicode="\" horiz-adv-x="727" d="M0 1604h145l582 -1756h-145z" />
<glyph unicode="]" horiz-adv-x="641" d="M90 -25h221v1508h-221v127h363v-1762h-363v127z" />
<glyph unicode="^" horiz-adv-x="1099" d="M147 846l336 624h135l334 -624h-151l-250 467l-252 -467h-152z" />
<glyph unicode="_" horiz-adv-x="1099" d="M0 -233h1100v-105h-1100v105z" />
<glyph unicode="`" d="M256 1530h176l180 -313h-135z" />
<glyph unicode="a" horiz-adv-x="1077" d="M104 285q0 133 89.5 211.5t259.5 78.5h303v97q0 111 -59.5 166t-198.5 55q-98 0 -153.5 -25.5t-100.5 -89.5l-101 92q68 88 151 119t206 31q205 0 304 -85t99 -251v-684h-147v96q-61 -61 -126 -84.5t-165 -23.5q-104 0 -171 21.5t-114 70.5q-37 37 -56.5 91t-19.5 114z M248 287q0 -88 55 -130t176 -42q66 0 122 10t104 57q51 49 51 174v109h-283q-225 0 -225 -178z" />
<glyph unicode="b" horiz-adv-x="1116" d="M184 0v1458h148v-567q61 78 130.5 103.5t153.5 25.5q78 0 141.5 -23.5t104.5 -64.5q39 -39 62.5 -88t37 -105.5t18.5 -116t5 -118.5t-5 -118.5t-18.5 -116t-37 -105.5t-62.5 -88q-41 -41 -104.5 -64.5t-141.5 -23.5q-84 0 -153.5 26.5t-130.5 106.5v-121h-148zM332 504 q0 -74 9 -143.5t35.5 -123t77 -86t132.5 -32.5t132 32.5t76.5 86t35 123t8.5 143.5t-8.5 143.5t-35 122.5t-76.5 86t-132 33t-132.5 -33t-77 -86t-35.5 -122.5t-9 -143.5z" />
<glyph unicode="c" horiz-adv-x="1003" d="M129 504q0 129 34 225t94 160.5t141 97.5t177 33q104 0 179 -33t153 -117l-100 -94q-57 63 -108.5 88t-123.5 25q-74 0 -133 -29t-100 -86q-35 -49 -50.5 -111.5t-15.5 -158.5t15.5 -158.5t50.5 -112.5q41 -57 100.5 -85.5t132.5 -28.5q72 0 123.5 25.5t108.5 88.5 l100 -96q-78 -84 -152.5 -116.5t-179.5 -32.5q-96 0 -177 31.5t-141 96t-94 162t-34 226.5z" />
<glyph unicode="d" horiz-adv-x="1116" d="M131 504q0 59 5 118.5t18.5 116t37 105.5t62.5 88q41 41 104.5 64.5t141.5 23.5q84 0 153.5 -25.5t130.5 -103.5v567h148v-1458h-146v121q-61 -80 -131.5 -106.5t-154.5 -26.5q-78 0 -141.5 23.5t-104.5 64.5q-39 39 -62.5 88t-37 105.5t-18.5 115.5t-5 119zM279 504 q0 -74 9 -143.5t35.5 -123t77 -86t131.5 -32.5q82 0 132.5 32.5t77 86t34.5 123t8 143.5t-8 143.5t-34.5 122.5t-77 86t-132.5 33t-132 -33t-76.5 -86t-35.5 -122.5t-9 -143.5z" />
<glyph unicode="e" horiz-adv-x="1085" d="M129 504q0 246 110.5 381t303.5 135q197 0 305 -131t108 -357v-67h-680q0 -166 76 -257t221 -91q88 0 146.5 27.5t118.5 86.5l100 -88q-39 -39 -77 -67.5t-81 -48t-95 -29.5t-116 -10q-100 0 -181 30.5t-138 94t-89 161t-32 230.5zM276 575h533q-2 31 -4 53.5t-5 41 t-8.5 36t-13.5 37.5q-29 70 -92 111t-143 41t-143.5 -41t-92.5 -111q-16 -41 -22 -73.5t-9 -94.5z" />
<glyph unicode="f" horiz-adv-x="643" d="M88 889v112h129v191q0 55 15.5 104.5t48 86t80 58t112.5 21.5h107v-127h-80q-72 0 -103.5 -39t-31.5 -108v-187h215v-112h-215v-889h-148v889h-129z" />
<glyph unicode="g" horiz-adv-x="1112" d="M131 512q0 123 23.5 233.5t99.5 186.5q41 41 104.5 64.5t141.5 23.5q84 0 152.5 -25.5t129.5 -105.5v119h146v-1039q0 -94 -29 -173t-82 -136t-132 -90t-177 -33q-57 0 -102.5 7t-85 23.5t-77.5 42t-77 62.5l96 95q27 -25 52.5 -43.5t53 -32t60.5 -19.5t76 -6 q74 0 126 24.5t86 65.5t49 97.5t15 121.5v158q-61 -78 -130.5 -104.5t-151.5 -26.5q-78 0 -140.5 24.5t-103.5 65.5q-76 76 -99.5 186.5t-23.5 233.5zM279 512q0 -72 8 -139.5t34.5 -119.5t77 -85t131.5 -33q82 0 131.5 33t76 85t34.5 119.5t8 139.5q0 70 -8 138.5 t-34.5 120.5t-76 85t-131.5 33t-132 -33t-76.5 -85t-34.5 -120.5t-8 -138.5z" />
<glyph unicode="h" horiz-adv-x="1150" d="M184 0v1458h148v-561q109 123 282 123q172 0 267.5 -100.5t95.5 -272.5v-647h-148v623q0 133 -65.5 199.5t-179.5 66.5q-115 0 -183.5 -67.5t-68.5 -198.5v-623h-148z" />
<glyph unicode="i" horiz-adv-x="518" d="M176 1294v166h166v-166h-166zM184 0v1008h148v-1008h-148z" />
<glyph unicode="j" horiz-adv-x="518" d="M-31 -324h80q78 0 106.5 37t28.5 111v1177h148v-1183q0 -57 -15.5 -106.5t-47 -86.5t-80 -57.5t-113.5 -20.5h-107v129zM176 1294v166h166v-166h-166z" />
<glyph unicode="k" horiz-adv-x="1097" d="M184 0v1458h148v-975l454 525h185l-342 -385l401 -623h-182l-320 516l-196 -225v-291h-148z" />
<glyph unicode="l" horiz-adv-x="608" d="M180 268v1190h148v-1184q0 -74 28.5 -110.5t106.5 -36.5h80v-127h-107q-133 0 -194.5 77t-61.5 191z" />
<glyph unicode="m" horiz-adv-x="1800" d="M184 0v1008h148v-111q53 61 125.5 92t158.5 31q104 0 183.5 -42t126.5 -126q119 168 331 168q82 0 147.5 -24.5t113.5 -69.5q109 -104 108 -281v-645h-147v621q0 135 -66.5 201.5t-181.5 66.5q-111 0 -181.5 -65.5t-70.5 -186.5v-637h-148v621q0 135 -66.5 201.5 t-180.5 66.5q-115 0 -183.5 -67.5t-68.5 -200.5v-621h-148z" />
<glyph unicode="n" horiz-adv-x="1150" d="M184 0v1008h148v-111q53 61 124.5 92t157.5 31q164 0 258 -94q104 -102 105 -281v-645h-148v621q0 135 -66.5 201.5t-180.5 66.5q-115 0 -182.5 -67.5t-67.5 -200.5v-621h-148z" />
<glyph unicode="o" horiz-adv-x="1085" d="M131 504q0 57 5 113.5t18.5 106.5t37 96t62.5 85q53 53 125 84t164 31t163.5 -31t124.5 -84q76 -78 99.5 -181t23.5 -220t-23.5 -220.5t-99.5 -181.5q-53 -53 -124.5 -83.5t-163.5 -30.5t-164 30.5t-125 83.5q-39 39 -62.5 85t-37 96.5t-18.5 105.5t-5 115zM279 504 q0 -43 2 -86t11 -84t24.5 -78t43.5 -63q74 -74 183 -74q111 0 184 74q27 27 43 63.5t24.5 77.5t10.5 84t2 86t-2 86t-10.5 84t-24.5 76.5t-43 64.5q-74 74 -184 74q-109 0 -183 -74q-29 -29 -44 -64.5t-24 -76.5t-11 -84t-2 -86z" />
<glyph unicode="p" horiz-adv-x="1116" d="M184 -451v1459h148v-119q61 80 130.5 105.5t153.5 25.5q78 0 141.5 -23.5t104.5 -64.5q39 -39 62.5 -88t37 -105.5t18.5 -116t5 -118.5t-5 -118.5t-18.5 -116t-37 -105.5t-62.5 -88q-41 -41 -104.5 -64.5t-141.5 -23.5q-84 0 -153.5 26.5t-130.5 104.5v-570h-148z M332 504q0 -74 9 -143.5t35.5 -123t77 -86t132.5 -32.5t132 32.5t76.5 86t35 123t8.5 143.5t-8.5 143.5t-35 122.5t-76.5 86t-132 33t-132.5 -33t-77 -86t-35.5 -122.5t-9 -143.5z" />
<glyph unicode="q" horiz-adv-x="1116" d="M131 504q0 59 5 118.5t18.5 116t37 105.5t62.5 88q41 41 104.5 64.5t141.5 23.5q84 0 154.5 -25.5t131.5 -105.5v119h146v-1459h-148v570q-61 -78 -130.5 -104.5t-153.5 -26.5q-78 0 -141.5 23.5t-104.5 64.5q-39 39 -62.5 88t-37 105.5t-18.5 115.5t-5 119zM279 504 q0 -74 9 -143.5t35.5 -123t77 -86t131.5 -32.5q82 0 132.5 32.5t77 86t34.5 123t8 143.5t-8 143.5t-34.5 122.5t-77 86t-132.5 33t-132 -33t-76.5 -86t-35.5 -122.5t-9 -143.5z" />
<glyph unicode="r" horiz-adv-x="862" d="M184 0v1008h148v-123q41 63 117.5 99t164.5 36q72 0 130.5 -20.5t111.5 -73.5l-108 -111q-41 41 -78 57.5t-97 16.5q-55 0 -100 -20.5t-75.5 -57.5t-48 -86t-17.5 -107v-618h-148z" />
<glyph unicode="s" horiz-adv-x="1015" d="M88 133l98 98q59 -63 139.5 -89.5t174.5 -26.5q125 0 196.5 44t71.5 134q0 66 -40 102.5t-128 44.5l-166 15q-147 12 -224 78.5t-77 191.5q0 70 27.5 124t77 92t118 58.5t148.5 20.5q109 0 202 -26.5t160 -82.5l-96 -96q-53 41 -121.5 60.5t-146.5 19.5 q-111 0 -168.5 -44t-57.5 -122q0 -66 40 -102.5t137 -44.5l161 -15q66 -6 121.5 -22.5t94 -49t60 -81.5t21.5 -119q0 -74 -29.5 -130t-84 -96t-129 -60.5t-166.5 -20.5q-129 0 -229.5 32.5t-184.5 112.5z" />
<glyph unicode="t" horiz-adv-x="679" d="M82 889v112h127v316h147v-316h215v-112h-215v-615q0 -70 33 -108.5t105 -38.5h77v-127h-104q-66 0 -114 21.5t-79.5 58.5t-48 86t-16.5 104v619h-127z" />
<glyph unicode="u" horiz-adv-x="1150" d="M174 365v643h148v-621q0 -135 65.5 -201.5t179.5 -66.5q115 0 183.5 67.5t68.5 200.5v621h148v-1008h-146v113q-53 -61 -125.5 -93t-158.5 -32q-166 0 -261 94q-53 53 -77.5 123.5t-24.5 159.5z" />
<glyph unicode="v" horiz-adv-x="915" d="M23 1008h159l275 -809l276 809h160l-371 -1008h-131z" />
<glyph unicode="w" horiz-adv-x="1482" d="M23 1008h159l232 -809l264 809h127l266 -809l229 809h160l-317 -1008h-137l-265 782l-262 -782h-137z" />
<glyph unicode="x" horiz-adv-x="978" d="M68 0l342 514l-328 494h178l232 -373l227 373h178l-328 -494l342 -514h-178l-241 391l-246 -391h-178z" />
<glyph unicode="y" horiz-adv-x="915" d="M23 1008h159l277 -809l274 809h160l-459 -1252q-29 -80 -72 -118q-41 -39 -92 -54.5t-104 -15.5h-64v131h45q76 0 109 27.5t57 97.5l72 196z" />
<glyph unicode="z" horiz-adv-x="940" d="M102 0v127l562 750h-531v131h701v-125l-564 -752h564v-131h-732z" />
<glyph unicode="{" horiz-adv-x="724" d="M98 664v131h54q29 0 52 10t40 26q37 37 37 123v392q0 80 13 123.5t48 78.5q33 33 81 47.5t126 14.5h76v-131h-47q-53 0 -79 -5.5t-42 -21.5t-22.5 -47t-6.5 -86v-385q0 -88 -35 -132t-94 -73q59 -29 94 -73t35 -132v-385q0 -55 6 -85.5t23 -47.5q16 -16 41.5 -21t79.5 -5 h47v-132h-76q-78 0 -126 14.5t-81 47.5q-35 35 -48 79t-13 124v391q0 86 -37 123q-16 16 -40 26.5t-52 10.5h-54z" />
<glyph unicode="|" horiz-adv-x="667" d="M260 -152v1762h148v-1762h-148z" />
<glyph unicode="}" horiz-adv-x="724" d="M98 -20h49q53 0 78 5t41 21t23.5 47t7.5 86v385q0 88 35 132t94 73q-59 29 -94 73t-35 132v385q0 55 -7 86t-24 47q-16 16 -40.5 21.5t-78.5 5.5h-49v131h78q78 0 126 -14.5t81 -47.5q35 -35 48 -79t13 -123v-392q0 -86 37 -123q16 -16 40 -26t52 -10h52v-131h-52 q-29 0 -52 -10.5t-40 -26.5q-37 -37 -37 -123v-391q0 -80 -13 -124t-48 -79q-33 -33 -81 -47.5t-126 -14.5h-78v132z" />
<glyph unicode="~" horiz-adv-x="1103" d="M100 543q43 43 77 69.5t63.5 42t59.5 21.5t65 6q53 0 104 -18.5t111 -45.5q43 -20 80.5 -34.5t78.5 -14.5q20 0 39 3t38.5 13.5t42 28t52.5 48.5l93 -93q-43 -43 -77 -70.5t-63.5 -43t-59.5 -20.5t-65 -5q-53 0 -105 18.5t-112 45.5q-43 20 -81 34.5t-79 14.5 q-23 0 -40 -3t-36.5 -13.5t-42 -28t-53.5 -47.5z" />
<glyph unicode="&#xa4;" horiz-adv-x="1351" d="M160 133l151 152q-41 55 -65.5 123.5t-24.5 146.5t24.5 146.5t65.5 123.5l-151 150l94 94l152 -149q55 41 123.5 64.5t146.5 23.5t145.5 -23.5t122.5 -64.5l154 149l94 -94l-152 -150q41 -55 65.5 -123.5t24.5 -146.5t-24.5 -146.5t-65.5 -123.5l152 -152l-94 -94 l-154 151q-55 -41 -122.5 -65.5t-145.5 -24.5t-146.5 25t-123.5 65l-152 -151zM356 555q0 -66 26 -124t69 -101t101 -68.5t124 -25.5t124 25.5t101 68.5t67.5 101t24.5 124t-24.5 124t-67.5 101t-101.5 67.5t-123.5 24.5q-66 0 -124 -24.5t-101 -67.5t-69 -101t-26 -124z " />
<glyph unicode="&#xa6;" horiz-adv-x="686" d="M260 -152v717h148v-717h-148zM260 893v717h148v-717h-148z" />
<glyph unicode="&#xa7;" horiz-adv-x="1140" d="M178 516q0 63 18.5 115.5t48 95.5t68.5 73.5t80 51.5q-88 41 -139 105.5t-51 177.5q0 74 27.5 136t76.5 106t117 68.5t147 24.5q80 0 146.5 -22.5t116 -63.5t78 -101t32.5 -134h-147q-8 102 -67.5 146t-158.5 44q-104 0 -162.5 -51t-58.5 -151q0 -82 47 -128t125 -69 l160 -45q135 -39 208 -137.5t73 -237.5q0 -63 -18.5 -115.5t-48.5 -95.5t-67.5 -73.5t-78.5 -51.5q88 -33 143 -107.5t55 -187.5q0 -80 -29.5 -145.5t-80 -111.5t-119 -70.5t-148.5 -24.5q-76 0 -144.5 20.5t-120.5 62.5t-85 103.5t-37 143.5h150q10 -96 71.5 -145.5 t165.5 -49.5t166 55.5t62 159.5q0 72 -47 128.5t-134 80.5l-159 45q-135 39 -208 136.5t-73 238.5zM328 518q0 -66 19.5 -111t47.5 -77q68 -74 176 -74q109 0 177 74q31 35 48 78.5t17 109.5q0 59 -13.5 104.5t-51.5 84.5q-74 74 -177 73q-109 0 -176 -73q-35 -39 -51 -82 t-16 -107z" />
<glyph unicode="&#xa8;" d="M221 1233v182h148v-182h-148zM655 1233v182h148v-182h-148z" />
<glyph unicode="&#xa9;" horiz-adv-x="1804" d="M160 729q0 154 58 289t158.5 235.5t236 158.5t288.5 58q154 0 289 -58t235.5 -158.5t158.5 -235.5t58 -289t-58 -289t-158.5 -235.5t-235.5 -158.5t-289 -58t-289 58t-235.5 158.5t-158.5 235.5t-58 289zM281 729q0 -129 48 -243.5t133 -200.5t197.5 -136.5t241.5 -50.5 t242.5 50.5t197.5 136.5t133.5 200.5t49.5 243.5t-49.5 243.5t-133.5 201t-197.5 136.5t-242.5 50t-241.5 -50t-197.5 -136.5t-133 -201t-48 -243.5zM547 729q0 90 23.5 167t69.5 132t113.5 87t157.5 32q86 0 145.5 -26.5t123.5 -82.5l-74 -73q-51 45 -94 62t-101 17 q-70 0 -118 -25.5t-76.5 -68.5t-41.5 -100t-13 -121q0 -66 13 -122t41.5 -99t77 -67.5t117.5 -24.5q57 0 100.5 16.5t94.5 61.5l74 -74q-59 -53 -121 -80t-148 -27q-90 0 -157.5 32t-113.5 87t-69.5 131t-23.5 166z" />
<glyph unicode="&#xab;" horiz-adv-x="1134" d="M82 549l430 430v-184l-246 -246l246 -248v-182zM545 549l430 430v-184l-248 -246l248 -248v-182z" />
<glyph unicode="&#xac;" horiz-adv-x="1069" d="M104 492v137h861v-418h-138v281h-723z" />
<glyph unicode="&#xad;" horiz-adv-x="872" d="M156 483v138h561v-138h-561z" />
<glyph unicode="&#xae;" horiz-adv-x="1804" d="M160 729q0 154 58 289t158.5 235.5t236 158.5t288.5 58q154 0 289 -58t235.5 -158.5t158.5 -235.5t58 -289t-58 -289t-158.5 -235.5t-235.5 -158.5t-289 -58t-289 58t-235.5 158.5t-158.5 235.5t-58 289zM279 729q0 -131 49 -245.5t133 -200.5t197.5 -136.5t242.5 -50.5 t242.5 50.5t198.5 136.5t134.5 200.5t49.5 245.5t-49.5 246t-134.5 201t-198.5 136t-242.5 50t-242.5 -50t-197.5 -136t-133 -201t-49 -246zM659 324v813h277q53 0 99 -18.5t81 -51.5t55.5 -78t20.5 -96q0 -90 -49 -145.5t-125 -77.5l194 -346h-131l-186 331h-123v-331h-113 zM772 752h152q68 0 110.5 40t42.5 101t-43 102t-110 41h-152v-284z" />
<glyph unicode="&#xaf;" d="M203 1257v117h618v-117h-618z" />
<glyph unicode="&#xb0;" horiz-adv-x="948" d="M137 1141q0 70 26.5 131t73 106t108 72t130.5 27q70 0 131.5 -27t106.5 -72t71.5 -106t26.5 -131t-26.5 -131.5t-71.5 -106.5t-106.5 -71.5t-131.5 -26.5t-131 26.5t-107.5 71.5t-73 106.5t-26.5 131.5zM262 1141q0 -47 16.5 -86t45 -69t67.5 -46t84 -16t84 16t66.5 46 t44 69t16.5 86q0 45 -16.5 85t-45 69.5t-67.5 46t-84 16.5t-84 -16.5t-66.5 -46t-44 -69.5t-16.5 -85z" />
<glyph unicode="&#xb1;" horiz-adv-x="1069" d="M106 0v137h857v-137h-857zM106 592v137h361v358h137v-358h359v-137h-359v-363h-137v363h-361z" />
<glyph unicode="&#xb4;" d="M412 1217l180 313h176l-221 -313h-135z" />
<glyph unicode="&#xb5;" horiz-adv-x="1148" d="M170 -451v1459h147v-621q0 -135 67 -201.5t181 -66.5q115 0 183.5 67.5t68.5 200.5v621h148v-1008h-148v113q-109 -125 -282 -125q-135 0 -218 75v-514h-147z" />
<glyph unicode="&#xb6;" horiz-adv-x="1234" d="M86 1061q0 82 29.5 154.5t87 126t140.5 85t187 31.5h494v-1909h-147v1770h-240v-1770h-148v1119q-92 0 -166.5 32.5t-127 88t-81 126t-28.5 146.5z" />
<glyph unicode="&#xb7;" horiz-adv-x="552" d="M180 457v192h193v-192h-193z" />
<glyph unicode="&#xb8;" d="M358 -442l146 305h137l-121 -305h-162z" />
<glyph unicode="&#xbb;" horiz-adv-x="1134" d="M160 119v182l248 248l-248 246v184l430 -430zM623 119v182l245 248l-245 246v184l430 -430z" />
<glyph unicode="&#xc1;" horiz-adv-x="1251" d="M25 0l536 1458h131l535 -1458h-166l-117 330h-637l-117 -330h-165zM354 465h545l-270 770zM518 1599l180 314h176l-221 -314h-135z" />
<glyph unicode="&#xc2;" horiz-adv-x="1251" d="M25 0l536 1458h131l535 -1458h-166l-117 330h-637l-117 -330h-165zM293 1599l256 314h139l256 -314h-141l-185 213l-184 -213h-141zM354 465h545l-270 770z" />
<glyph unicode="&#xc4;" horiz-adv-x="1251" d="M25 0l536 1458h131l535 -1458h-166l-117 330h-637l-117 -330h-165zM328 1616v182h147v-182h-147zM354 465h545l-270 770zM762 1616v182h147v-182h-147z" />
<glyph unicode="&#xc7;" horiz-adv-x="1304" d="M156 729q0 117 2 204t15 155.5t41 124t79 106.5q74 74 169 112.5t204 38.5q98 0 182 -29.5t150.5 -85t110.5 -136t62 -183.5h-159q-29 135 -119 215t-227 80q-72 0 -138.5 -26.5t-113.5 -75.5q-35 -35 -55.5 -75t-31 -96.5t-13.5 -135t-3 -193.5t3 -193.5t13.5 -135 t31 -96.5t55.5 -75q47 -49 113.5 -75.5t138.5 -26.5q137 0 229 80t121 215h155q-18 -102 -62 -183t-110.5 -136.5t-150.5 -85t-182 -29.5q-109 0 -204 39t-169 112q-51 51 -79 106.5t-41 124t-15 155.5t-2 204zM475 -442l146 305h137l-121 -305h-162z" />
<glyph unicode="&#xc9;" horiz-adv-x="1228" d="M211 0v1458h905v-139h-749v-514h639v-139h-639v-527h749v-139h-905zM541 1599l180 314h176l-221 -314h-135z" />
<glyph unicode="&#xcb;" horiz-adv-x="1228" d="M211 0v1458h905v-139h-749v-514h639v-139h-639v-527h749v-139h-905zM350 1616v182h148v-182h-148zM784 1616v182h148v-182h-148z" />
<glyph unicode="&#xcd;" horiz-adv-x="577" d="M211 0v1458h156v-1458h-156zM211 1599l180 314h176l-221 -314h-135z" />
<glyph unicode="&#xce;" horiz-adv-x="577" d="M-39 1599l256 314h139l256 -314h-141l-184 213l-185 -213h-141zM211 0v1458h156v-1458h-156z" />
<glyph unicode="&#xd3;" horiz-adv-x="1331" d="M156 729q0 117 2 204t15 155.5t41 124t79 106.5q152 152 373 151q221 0 372 -151q51 -51 79 -106.5t41 -124t15.5 -155.5t2.5 -204t-2.5 -204t-15.5 -155.5t-40.5 -124t-79.5 -106.5q-74 -74 -168 -112.5t-204 -38.5q-221 0 -373 151q-51 51 -79 106.5t-41 124t-15 155.5 t-2 204zM311 729q0 -115 3 -193.5t13.5 -134t31 -95.5t55.5 -75q47 -49 113.5 -76.5t138.5 -27.5t138 27.5t114 76.5q35 35 55 75t30.5 95.5t13.5 134t3 193.5t-3 193.5t-13.5 134t-31 95.5t-54.5 75q-47 49 -114 76.5t-138 27.5q-72 0 -138.5 -27.5t-113.5 -76.5 q-35 -35 -55.5 -75t-31 -95.5t-13.5 -134t-3 -193.5zM565 1599l180 314h177l-222 -314h-135z" />
<glyph unicode="&#xd4;" horiz-adv-x="1331" d="M156 729q0 117 2 204t15 155.5t41 124t79 106.5q152 152 373 151q221 0 372 -151q51 -51 79 -106.5t41 -124t15.5 -155.5t2.5 -204t-2.5 -204t-15.5 -155.5t-40.5 -124t-79.5 -106.5q-74 -74 -168 -112.5t-204 -38.5q-221 0 -373 151q-51 51 -79 106.5t-41 124t-15 155.5 t-2 204zM311 729q0 -115 3 -193.5t13.5 -134t31 -95.5t55.5 -75q47 -49 113.5 -76.5t138.5 -27.5t138 27.5t114 76.5q35 35 55 75t30.5 95.5t13.5 134t3 193.5t-3 193.5t-13.5 134t-31 95.5t-54.5 75q-47 49 -114 76.5t-138 27.5q-72 0 -138.5 -27.5t-113.5 -76.5 q-35 -35 -55.5 -75t-31 -95.5t-13.5 -134t-3 -193.5zM340 1599l256 314h139l256 -314h-141l-184 213l-185 -213h-141z" />
<glyph unicode="&#xd6;" horiz-adv-x="1331" d="M156 729q0 117 2 204t15 155.5t41 124t79 106.5q152 152 373 151q221 0 372 -151q51 -51 79 -106.5t41 -124t15.5 -155.5t2.5 -204t-2.5 -204t-15.5 -155.5t-40.5 -124t-79.5 -106.5q-74 -74 -168 -112.5t-204 -38.5q-221 0 -373 151q-51 51 -79 106.5t-41 124t-15 155.5 t-2 204zM311 729q0 -115 3 -193.5t13.5 -134t31 -95.5t55.5 -75q47 -49 113.5 -76.5t138.5 -27.5t138 27.5t114 76.5q35 35 55 75t30.5 95.5t13.5 134t3 193.5t-3 193.5t-13.5 134t-31 95.5t-54.5 75q-47 49 -114 76.5t-138 27.5q-72 0 -138.5 -27.5t-113.5 -76.5 q-35 -35 -55.5 -75t-31 -95.5t-13.5 -134t-3 -193.5zM375 1616v182h147v-182h-147zM809 1616v182h147v-182h-147z" />
<glyph unicode="&#xd7;" horiz-adv-x="1069" d="M133 244l309 309l-309 309l92 92l310 -311l309 311l92 -92l-311 -309l311 -309l-92 -92l-309 309l-310 -309z" />
<glyph unicode="&#xda;" horiz-adv-x="1398" d="M190 481v977h156v-964q0 -84 24.5 -152t70.5 -115t111.5 -73.5t145.5 -26.5t145.5 26.5t111.5 73.5t72 115t26 152v964h155v-977q0 -109 -37.5 -200t-106.5 -156.5t-162 -101t-204 -35.5t-204 35.5t-160.5 101t-105.5 157t-38 199.5zM598 1599l180 314h176l-221 -314 h-135z" />
<glyph unicode="&#xdc;" horiz-adv-x="1398" d="M190 481v977h156v-964q0 -84 24.5 -152t70.5 -115t111.5 -73.5t145.5 -26.5t145.5 26.5t111.5 73.5t72 115t26 152v964h155v-977q0 -109 -37.5 -200t-106.5 -156.5t-162 -101t-204 -35.5t-204 35.5t-160.5 101t-105.5 157t-38 199.5zM408 1616v182h147v-182h-147z M842 1616v182h147v-182h-147z" />
<glyph unicode="&#xdd;" horiz-adv-x="1052" d="M16 1458h168l344 -698l340 698h168l-430 -856v-602h-155v602zM426 1599l180 314h176l-221 -314h-135z" />
<glyph unicode="&#xdf;" horiz-adv-x="1138" d="M184 0v1073q0 193 111 296.5t301 103.5q82 0 153.5 -20.5t125 -61.5t85 -105.5t31.5 -152.5q0 -86 -33.5 -144.5t-95.5 -99.5q37 -20 61.5 -43t40 -51.5t21.5 -65.5t6 -86v-354q0 -141 -80 -215q-41 -39 -90 -56.5t-121 -17.5h-110v127h82q45 0 69.5 9t51.5 32 q51 41 51 137v346q0 84 -43 127t-121 43h-90v123h74q80 0 130 50t50 136q0 45 -17.5 85t-46.5 69q-61 59 -192 59q-137 0 -195.5 -76.5t-58.5 -199.5v-1067h-150z" />
<glyph unicode="&#xe1;" horiz-adv-x="1077" d="M104 285q0 133 89.5 211.5t259.5 78.5h303v97q0 111 -59.5 166t-198.5 55q-98 0 -153.5 -25.5t-100.5 -89.5l-101 92q68 88 151 119t206 31q205 0 304 -85t99 -251v-684h-147v96q-61 -61 -126 -84.5t-165 -23.5q-104 0 -171 21.5t-114 70.5q-37 37 -56.5 91t-19.5 114z M248 287q0 -88 55 -130t176 -42q66 0 122 10t104 57q51 49 51 174v109h-283q-225 0 -225 -178zM416 1217l180 313h176l-221 -313h-135z" />
<glyph unicode="&#xe2;" horiz-adv-x="1077" d="M104 285q0 133 89.5 211.5t259.5 78.5h303v97q0 111 -59.5 166t-198.5 55q-98 0 -153.5 -25.5t-100.5 -89.5l-101 92q68 88 151 119t206 31q205 0 304 -85t99 -251v-684h-147v96q-61 -61 -126 -84.5t-165 -23.5q-104 0 -171 21.5t-114 70.5q-37 37 -56.5 91t-19.5 114z M190 1217l256 313h140l256 -313h-142l-184 213l-184 -213h-142zM248 287q0 -88 55 -130t176 -42q66 0 122 10t104 57q51 49 51 174v109h-283q-225 0 -225 -178z" />
<glyph unicode="&#xe4;" horiz-adv-x="1077" d="M104 285q0 133 89.5 211.5t259.5 78.5h303v97q0 111 -59.5 166t-198.5 55q-98 0 -153.5 -25.5t-100.5 -89.5l-101 92q68 88 151 119t206 31q205 0 304 -85t99 -251v-684h-147v96q-61 -61 -126 -84.5t-165 -23.5q-104 0 -171 21.5t-114 70.5q-37 37 -56.5 91t-19.5 114z M225 1233v182h148v-182h-148zM248 287q0 -88 55 -130t176 -42q66 0 122 10t104 57q51 49 51 174v109h-283q-225 0 -225 -178zM659 1233v182h148v-182h-148z" />
<glyph unicode="&#xe7;" horiz-adv-x="1003" d="M129 504q0 129 34 225t94 160.5t141 97.5t177 33q104 0 179 -33t153 -117l-100 -94q-57 63 -108.5 88t-123.5 25q-74 0 -133 -29t-100 -86q-35 -49 -50.5 -111.5t-15.5 -158.5t15.5 -158.5t50.5 -112.5q41 -57 100.5 -85.5t132.5 -28.5q72 0 123.5 25.5t108.5 88.5 l100 -96q-78 -84 -152.5 -116.5t-179.5 -32.5q-96 0 -177 31.5t-141 96t-94 162t-34 226.5zM358 -442l146 305h137l-121 -305h-162z" />
<glyph unicode="&#xe9;" horiz-adv-x="1085" d="M129 504q0 246 110.5 381t303.5 135q197 0 305 -131t108 -357v-67h-680q0 -166 76 -257t221 -91q88 0 146.5 27.5t118.5 86.5l100 -88q-39 -39 -77 -67.5t-81 -48t-95 -29.5t-116 -10q-100 0 -181 30.5t-138 94t-89 161t-32 230.5zM276 575h533q-2 31 -4 53.5t-5 41 t-8.5 36t-13.5 37.5q-29 70 -92 111t-143 41t-143.5 -41t-92.5 -111q-16 -41 -22 -73.5t-9 -94.5zM449 1217l180 313h176l-221 -313h-135z" />
<glyph unicode="&#xeb;" horiz-adv-x="1085" d="M129 504q0 246 110.5 381t303.5 135q197 0 305 -131t108 -357v-67h-680q0 -166 76 -257t221 -91q88 0 146.5 27.5t118.5 86.5l100 -88q-39 -39 -77 -67.5t-81 -48t-95 -29.5t-116 -10q-100 0 -181 30.5t-138 94t-89 161t-32 230.5zM258 1233v182h148v-182h-148zM276 575 h533q-2 31 -4 53.5t-5 41t-8.5 36t-13.5 37.5q-29 70 -92 111t-143 41t-143.5 -41t-92.5 -111q-16 -41 -22 -73.5t-9 -94.5zM692 1233v182h148v-182h-148z" />
<glyph unicode="&#xed;" horiz-adv-x="518" d="M184 0v1008h148v-1008h-148zM184 1217l181 313h176l-222 -313h-135z" />
<glyph unicode="&#xee;" horiz-adv-x="518" d="M-61 1217l256 313h139l256 -313h-141l-185 213l-184 -213h-141zM184 0v1008h148v-1008h-148z" />
<glyph unicode="&#xf3;" horiz-adv-x="1085" d="M131 504q0 57 5 113.5t18.5 106.5t37 96t62.5 85q53 53 125 84t164 31t163.5 -31t124.5 -84q76 -78 99.5 -181t23.5 -220t-23.5 -220.5t-99.5 -181.5q-53 -53 -124.5 -83.5t-163.5 -30.5t-164 30.5t-125 83.5q-39 39 -62.5 85t-37 96.5t-18.5 105.5t-5 115zM279 504 q0 -43 2 -86t11 -84t24.5 -78t43.5 -63q74 -74 183 -74q111 0 184 74q27 27 43 63.5t24.5 77.5t10.5 84t2 86t-2 86t-10.5 84t-24.5 76.5t-43 64.5q-74 74 -184 74q-109 0 -183 -74q-29 -29 -44 -64.5t-24 -76.5t-11 -84t-2 -86zM442 1217l181 313h176l-221 -313h-136z" />
<glyph unicode="&#xf4;" horiz-adv-x="1085" d="M131 504q0 57 5 113.5t18.5 106.5t37 96t62.5 85q53 53 125 84t164 31t163.5 -31t124.5 -84q76 -78 99.5 -181t23.5 -220t-23.5 -220.5t-99.5 -181.5q-53 -53 -124.5 -83.5t-163.5 -30.5t-164 30.5t-125 83.5q-39 39 -62.5 85t-37 96.5t-18.5 105.5t-5 115zM217 1217 l256 313h139l256 -313h-141l-184 213l-185 -213h-141zM279 504q0 -43 2 -86t11 -84t24.5 -78t43.5 -63q74 -74 183 -74q111 0 184 74q27 27 43 63.5t24.5 77.5t10.5 84t2 86t-2 86t-10.5 84t-24.5 76.5t-43 64.5q-74 74 -184 74q-109 0 -183 -74q-29 -29 -44 -64.5 t-24 -76.5t-11 -84t-2 -86z" />
<glyph unicode="&#xf6;" horiz-adv-x="1085" d="M131 504q0 57 5 113.5t18.5 106.5t37 96t62.5 85q53 53 125 84t164 31t163.5 -31t124.5 -84q76 -78 99.5 -181t23.5 -220t-23.5 -220.5t-99.5 -181.5q-53 -53 -124.5 -83.5t-163.5 -30.5t-164 30.5t-125 83.5q-39 39 -62.5 85t-37 96.5t-18.5 105.5t-5 115zM252 1233v182 h147v-182h-147zM279 504q0 -43 2 -86t11 -84t24.5 -78t43.5 -63q74 -74 183 -74q111 0 184 74q27 27 43 63.5t24.5 77.5t10.5 84t2 86t-2 86t-10.5 84t-24.5 76.5t-43 64.5q-74 74 -184 74q-109 0 -183 -74q-29 -29 -44 -64.5t-24 -76.5t-11 -84t-2 -86zM686 1233v182h148 v-182h-148z" />
<glyph unicode="&#xf7;" horiz-adv-x="1069" d="M104 483v138h861v-138h-861zM446 100v176h177v-176h-177zM446 827v177h177v-177h-177z" />
<glyph unicode="&#xfa;" horiz-adv-x="1150" d="M174 365v643h148v-621q0 -135 65.5 -201.5t179.5 -66.5q115 0 183.5 67.5t68.5 200.5v621h148v-1008h-146v113q-53 -61 -125.5 -93t-158.5 -32q-166 0 -261 94q-53 53 -77.5 123.5t-24.5 159.5zM469 1217l180 313h176l-221 -313h-135z" />
<glyph unicode="&#xfc;" horiz-adv-x="1150" d="M174 365v643h148v-621q0 -135 65.5 -201.5t179.5 -66.5q115 0 183.5 67.5t68.5 200.5v621h148v-1008h-146v113q-53 -61 -125.5 -93t-158.5 -32q-166 0 -261 94q-53 53 -77.5 123.5t-24.5 159.5zM279 1233v182h147v-182h-147zM713 1233v182h147v-182h-147z" />
<glyph unicode="&#xfd;" horiz-adv-x="915" d="M23 1008h159l277 -809l274 809h160l-459 -1252q-29 -80 -72 -118q-41 -39 -92 -54.5t-104 -15.5h-64v131h45q76 0 109 27.5t57 97.5l72 196zM356 1217l181 313h176l-221 -313h-136z" />
<glyph unicode="&#x102;" horiz-adv-x="1251" d="M25 0l536 1458h131l535 -1458h-166l-117 330h-637l-117 -330h-165zM287 1872h119q10 -80 69.5 -124t153.5 -44t152.5 44t68.5 124h113q-25 -285 -334 -285q-317 0 -342 285zM354 465h545l-270 770z" />
<glyph unicode="&#x103;" horiz-adv-x="1077" d="M104 285q0 133 89.5 211.5t259.5 78.5h303v97q0 111 -59.5 166t-198.5 55q-98 0 -153.5 -25.5t-100.5 -89.5l-101 92q68 88 151 119t206 31q205 0 304 -85t99 -251v-684h-147v96q-61 -61 -126 -84.5t-165 -23.5q-104 0 -171 21.5t-114 70.5q-37 37 -56.5 91t-19.5 114z M188 1489h119q10 -80 69.5 -124t153.5 -44t152.5 44t69.5 124h112q-25 -285 -334 -285q-317 0 -342 285zM248 287q0 -88 55 -130t176 -42q66 0 122 10t104 57q51 49 51 174v109h-283q-225 0 -225 -178z" />
<glyph unicode="&#x104;" horiz-adv-x="1251" d="M25 0l536 1458h131l535 -1458h-166l-117 330h-637l-117 -330h-165zM354 465h545l-270 770zM1090 -137h135l145 -305h-160z" />
<glyph unicode="&#x105;" horiz-adv-x="1077" d="M104 285q0 133 89.5 211.5t259.5 78.5h303v97q0 111 -59.5 166t-198.5 55q-98 0 -153.5 -25.5t-100.5 -89.5l-101 92q68 88 151 119t206 31q205 0 304 -85t99 -251v-684h-147v96q-61 -61 -126 -84.5t-165 -23.5q-104 0 -171 21.5t-114 70.5q-37 37 -56.5 91t-19.5 114z M248 287q0 -88 55 -130t176 -42q66 0 122 10t104 57q51 49 51 174v109h-283q-225 0 -225 -178zM756 -137h135l145 -305h-159z" />
<glyph unicode="&#x106;" horiz-adv-x="1304" d="M156 729q0 117 2 204t15 155.5t41 124t79 106.5q74 74 169 112.5t204 38.5q98 0 182 -29.5t150.5 -85t110.5 -136t62 -183.5h-159q-29 135 -119 215t-227 80q-72 0 -138.5 -26.5t-113.5 -75.5q-35 -35 -55.5 -75t-31 -96.5t-13.5 -135t-3 -193.5t3 -193.5t13.5 -135 t31 -96.5t55.5 -75q47 -49 113.5 -75.5t138.5 -26.5q137 0 229 80t121 215h155q-18 -102 -62 -183t-110.5 -136.5t-150.5 -85t-182 -29.5q-109 0 -204 39t-169 112q-51 51 -79 106.5t-41 124t-15 155.5t-2 204zM551 1599l180 314h176l-221 -314h-135z" />
<glyph unicode="&#x107;" horiz-adv-x="1003" d="M129 504q0 129 34 225t94 160.5t141 97.5t177 33q104 0 179 -33t153 -117l-100 -94q-57 63 -108.5 88t-123.5 25q-74 0 -133 -29t-100 -86q-35 -49 -50.5 -111.5t-15.5 -158.5t15.5 -158.5t50.5 -112.5q41 -57 100.5 -85.5t132.5 -28.5q72 0 123.5 25.5t108.5 88.5 l100 -96q-78 -84 -152.5 -116.5t-179.5 -32.5q-96 0 -177 31.5t-141 96t-94 162t-34 226.5zM401 1217l181 313h176l-221 -313h-136z" />
<glyph unicode="&#x10c;" horiz-adv-x="1304" d="M156 729q0 117 2 204t15 155.5t41 124t79 106.5q74 74 169 112.5t204 38.5q98 0 182 -29.5t150.5 -85t110.5 -136t62 -183.5h-159q-29 135 -119 215t-227 80q-72 0 -138.5 -26.5t-113.5 -75.5q-35 -35 -55.5 -75t-31 -96.5t-13.5 -135t-3 -193.5t3 -193.5t13.5 -135 t31 -96.5t55.5 -75q47 -49 113.5 -75.5t138.5 -26.5q137 0 229 80t121 215h155q-18 -102 -62 -183t-110.5 -136.5t-150.5 -85t-182 -29.5q-109 0 -204 39t-169 112q-51 51 -79 106.5t-41 124t-15 155.5t-2 204zM326 1913h141l184 -215l185 215h141l-256 -314h-139z" />
<glyph unicode="&#x10d;" horiz-adv-x="1003" d="M129 504q0 129 34 225t94 160.5t141 97.5t177 33q104 0 179 -33t153 -117l-100 -94q-57 63 -108.5 88t-123.5 25q-74 0 -133 -29t-100 -86q-35 -49 -50.5 -111.5t-15.5 -158.5t15.5 -158.5t50.5 -112.5q41 -57 100.5 -85.5t132.5 -28.5q72 0 123.5 25.5t108.5 88.5 l100 -96q-78 -84 -152.5 -116.5t-179.5 -32.5q-96 0 -177 31.5t-141 96t-94 162t-34 226.5zM199 1530h141l184 -215l185 215h141l-256 -313h-139z" />
<glyph unicode="&#x10e;" horiz-adv-x="1378" d="M211 0v1458h500q115 0 209 -34.5t159 -100.5q57 -57 87 -126t42.5 -143.5t13.5 -153.5t1 -155t-1 -159.5t-13.5 -164.5t-42 -154.5t-87.5 -131.5q-66 -66 -160 -100.5t-208 -34.5h-500zM362 1913h142l184 -215l184 215h142l-256 -314h-140zM367 139h317q86 0 157.5 23.5 t129.5 83.5q37 39 57.5 97t28.5 125t9 138t1 139t-1 134.5t-9 127t-28.5 114t-57.5 91.5q-57 59 -129 83t-158 24h-317v-1180z" />
<glyph unicode="&#x10f;" horiz-adv-x="1116" d="M131 504q0 59 5 118.5t18.5 116t37 105.5t62.5 88q41 41 104.5 64.5t141.5 23.5q84 0 153.5 -25.5t130.5 -103.5v567h148v-1458h-146v121q-61 -80 -131.5 -106.5t-154.5 -26.5q-78 0 -141.5 23.5t-104.5 64.5q-39 39 -62.5 88t-37 105.5t-18.5 115.5t-5 119zM279 504 q0 -74 9 -143.5t35.5 -123t77 -86t131.5 -32.5q82 0 132.5 32.5t77 86t34.5 123t8 143.5t-8 143.5t-34.5 122.5t-77 86t-132.5 33t-132 -33t-76.5 -86t-35.5 -122.5t-9 -143.5zM1116 1196v334h158v-193z" />
<glyph unicode="&#x110;" horiz-adv-x="1406" d="M80 676v121h160v661h501q276 0 420 -219q31 -49 49.5 -90t27.5 -95.5t11 -130t2 -194.5q0 -125 -3 -205t-12 -135t-27.5 -94t-47.5 -80q-66 -92 -173 -153.5t-259 -61.5h-489v676h-160zM397 137h316q217 0 319 152q23 33 35 65.5t18.5 78.5t8.5 114t2 174q0 102 -2 173 t-9.5 121t-21.5 86t-41 73q-59 80 -132 113.5t-177 33.5h-316v-524h330v-121h-330v-539z" />
<glyph unicode="&#x111;" horiz-adv-x="1116" d="M131 504q0 59 5 118.5t18.5 116t37 105.5t62.5 88q41 41 104.5 64.5t141.5 23.5q84 0 153.5 -25.5t130.5 -103.5v280h-168v113h168v174h148v-174h139v-113h-139v-1171h-146v121q-61 -80 -131.5 -106.5t-154.5 -26.5q-78 0 -141.5 23.5t-104.5 64.5q-39 39 -62.5 88 t-37 105.5t-18.5 115.5t-5 119zM279 504q0 -74 9 -143.5t35.5 -123t77 -86t131.5 -32.5q82 0 132.5 32.5t77 86t34.5 123t8 143.5t-8 143.5t-34.5 122.5t-77 86t-132.5 33t-132 -33t-76.5 -86t-35.5 -122.5t-9 -143.5z" />
<glyph unicode="&#x118;" horiz-adv-x="1228" d="M211 0v1458h905v-139h-749v-514h639v-139h-639v-527h749v-139h-905zM913 -137h136l145 -305h-160z" />
<glyph unicode="&#x119;" horiz-adv-x="1085" d="M129 504q0 246 110.5 381t303.5 135q197 0 305 -131t108 -357v-67h-680q0 -166 76 -257t221 -91q88 0 146.5 27.5t118.5 86.5l100 -88q-39 -39 -77 -67.5t-81 -48t-95 -29.5t-116 -10q-100 0 -181 30.5t-138 94t-89 161t-32 230.5zM276 575h533q-2 31 -4 53.5t-5 41 t-8.5 36t-13.5 37.5q-29 70 -92 111t-143 41t-143.5 -41t-92.5 -111q-16 -41 -22 -73.5t-9 -94.5zM518 -137h135l146 -305h-160z" />
<glyph unicode="&#x11a;" horiz-adv-x="1228" d="M211 0v1458h905v-139h-749v-514h639v-139h-639v-527h749v-139h-905zM309 1913h142l184 -215l184 215h142l-256 -314h-140z" />
<glyph unicode="&#x11b;" horiz-adv-x="1085" d="M129 504q0 246 110.5 381t303.5 135q197 0 305 -131t108 -357v-67h-680q0 -166 76 -257t221 -91q88 0 146.5 27.5t118.5 86.5l100 -88q-39 -39 -77 -67.5t-81 -48t-95 -29.5t-116 -10q-100 0 -181 30.5t-138 94t-89 161t-32 230.5zM223 1530h142l184 -215l184 215h141 l-256 -313h-139zM276 575h533q-2 31 -4 53.5t-5 41t-8.5 36t-13.5 37.5q-29 70 -92 111t-143 41t-143.5 -41t-92.5 -111q-16 -41 -22 -73.5t-9 -94.5z" />
<glyph unicode="&#x131;" horiz-adv-x="518" d="M184 0v1008h148v-1008h-148z" />
<glyph unicode="&#x139;" horiz-adv-x="1173" d="M211 0v1458h156v-1319h745v-139h-901zM485 1599l181 314h176l-221 -314h-136z" />
<glyph unicode="&#x13a;" horiz-adv-x="608" d="M180 268v1190h148v-1184q0 -74 28.5 -110.5t106.5 -36.5h80v-127h-107q-133 0 -194.5 77t-61.5 191zM205 1599l180 314h176l-221 -314h-135z" />
<glyph unicode="&#x13d;" horiz-adv-x="1173" d="M211 0v1458h156v-1319h745v-139h-901zM713 1124v334h157v-192z" />
<glyph unicode="&#x13e;" horiz-adv-x="608" d="M180 268v1190h148v-1184q0 -74 28.5 -110.5t106.5 -36.5h80v-127h-107q-133 0 -194.5 77t-61.5 191zM512 1196v334h158v-193z" />
<glyph unicode="&#x141;" horiz-adv-x="1191" d="M80 498v137l149 94v729h158v-631l315 201v-135l-315 -201v-553h743v-139h-901v592z" />
<glyph unicode="&#x142;" horiz-adv-x="645" d="M76 621v127l129 79v631h147v-540l166 102v-127l-166 -102v-517q0 -74 29 -110.5t106 -36.5h82v-127h-106q-133 0 -195.5 77t-62.5 191v432z" />
<glyph unicode="&#x143;" horiz-adv-x="1499" d="M211 0v1458h147l775 -1165v1165h155v-1458h-147l-774 1169v-1169h-156zM649 1599l180 314h177l-222 -314h-135z" />
<glyph unicode="&#x144;" horiz-adv-x="1150" d="M184 0v1008h148v-111q53 61 124.5 92t157.5 31q164 0 258 -94q104 -102 105 -281v-645h-148v621q0 135 -66.5 201.5t-180.5 66.5q-115 0 -182.5 -67.5t-67.5 -200.5v-621h-148zM469 1217l180 313h176l-221 -313h-135z" />
<glyph unicode="&#x147;" horiz-adv-x="1499" d="M211 0v1458h147l775 -1165v1165h155v-1458h-147l-774 1169v-1169h-156zM424 1913h141l185 -215l184 215h141l-256 -314h-139z" />
<glyph unicode="&#x148;" horiz-adv-x="1150" d="M184 0v1008h148v-111q53 61 124.5 92t157.5 31q164 0 258 -94q104 -102 105 -281v-645h-148v621q0 135 -66.5 201.5t-180.5 66.5q-115 0 -182.5 -67.5t-67.5 -200.5v-621h-148zM250 1530h141l184 -215l185 215h141l-256 -313h-139z" />
<glyph unicode="&#x150;" horiz-adv-x="1331" d="M156 729q0 117 2 204t15 155.5t41 124t79 106.5q152 152 373 151q221 0 372 -151q51 -51 79 -106.5t41 -124t15.5 -155.5t2.5 -204t-2.5 -204t-15.5 -155.5t-40.5 -124t-79.5 -106.5q-74 -74 -168 -112.5t-204 -38.5q-221 0 -373 151q-51 51 -79 106.5t-41 124t-15 155.5 t-2 204zM311 729q0 -115 3 -193.5t13.5 -134t31 -95.5t55.5 -75q47 -49 113.5 -76.5t138.5 -27.5t138 27.5t114 76.5q35 35 55 75t30.5 95.5t13.5 134t3 193.5t-3 193.5t-13.5 134t-31 95.5t-54.5 75q-47 49 -114 76.5t-138 27.5q-72 0 -138.5 -27.5t-113.5 -76.5 q-35 -35 -55.5 -75t-31 -95.5t-13.5 -134t-3 -193.5zM412 1599l182 314h174l-221 -314h-135zM745 1599l183 314h174l-223 -314h-134z" />
<glyph unicode="&#x151;" horiz-adv-x="1085" d="M131 504q0 57 5 113.5t18.5 106.5t37 96t62.5 85q53 53 125 84t164 31t163.5 -31t124.5 -84q76 -78 99.5 -181t23.5 -220t-23.5 -220.5t-99.5 -181.5q-53 -53 -124.5 -83.5t-163.5 -30.5t-164 30.5t-125 83.5q-39 39 -62.5 85t-37 96.5t-18.5 105.5t-5 115zM276 1217 l183 313h174l-221 -313h-136zM279 504q0 -43 2 -86t11 -84t24.5 -78t43.5 -63q74 -74 183 -74q111 0 184 74q27 27 43 63.5t24.5 77.5t10.5 84t2 86t-2 86t-10.5 84t-24.5 76.5t-43 64.5q-74 74 -184 74q-109 0 -183 -74q-29 -29 -44 -64.5t-24 -76.5t-11 -84t-2 -86z M610 1217l183 313h174l-224 -313h-133z" />
<glyph unicode="&#x154;" horiz-adv-x="1343" d="M211 0v1458h559q94 0 174 -27.5t137.5 -80t89 -128t31.5 -169.5q0 -160 -88 -261.5t-229 -129.5l346 -662h-182l-332 647h-350v-647h-156zM367 784h389q129 0 210 66t81 201t-81 201.5t-210 66.5h-389v-535zM571 1599l181 314h176l-221 -314h-136z" />
<glyph unicode="&#x155;" horiz-adv-x="862" d="M184 0v1008h148v-123q41 63 117.5 99t164.5 36q72 0 130.5 -20.5t111.5 -73.5l-108 -111q-41 41 -78 57.5t-97 16.5q-55 0 -100 -20.5t-75.5 -57.5t-48 -86t-17.5 -107v-618h-148zM326 1217l180 313h176l-221 -313h-135z" />
<glyph unicode="&#x158;" horiz-adv-x="1343" d="M211 0v1458h559q94 0 174 -27.5t137.5 -80t89 -128t31.5 -169.5q0 -160 -88 -261.5t-229 -129.5l346 -662h-182l-332 647h-350v-647h-156zM346 1913h141l185 -215l184 215h141l-256 -314h-139zM367 784h389q129 0 210 66t81 201t-81 201.5t-210 66.5h-389v-535z" />
<glyph unicode="&#x159;" horiz-adv-x="862" d="M127 1530h141l185 -215l184 215h141l-256 -313h-139zM184 0v1008h148v-123q41 63 117.5 99t164.5 36q72 0 130.5 -20.5t111.5 -73.5l-108 -111q-41 41 -78 57.5t-97 16.5q-55 0 -100 -20.5t-75.5 -57.5t-48 -86t-17.5 -107v-618h-148z" />
<glyph unicode="&#x15a;" horiz-adv-x="1204" d="M86 180l107 107q90 -90 182 -125t215 -35q160 0 252 70.5t92 199.5q0 57 -17.5 104.5t-52.5 78.5t-72.5 44t-117.5 25l-170 27q-174 29 -268 110q-111 98 -111 273q0 92 32.5 169t93 130t146.5 82.5t195 29.5q139 0 239.5 -37.5t194.5 -121.5l-100 -101q-68 61 -146 93 t-194 32q-147 0 -227 -73.5t-80 -196.5q0 -111 65 -168q35 -29 87 -49.5t110 -30.5l159 -24q51 -8 91 -17.5t71 -22t56.5 -27.5t48.5 -36q123 -105 123 -289q0 -96 -36 -172.5t-102.5 -130t-160 -82t-205.5 -28.5q-164 0 -281 45t-219 147zM502 1599l180 314h176l-221 -314 h-135z" />
<glyph unicode="&#x15b;" horiz-adv-x="1015" d="M88 133l98 98q59 -63 139.5 -89.5t174.5 -26.5q125 0 196.5 44t71.5 134q0 66 -40 102.5t-128 44.5l-166 15q-147 12 -224 78.5t-77 191.5q0 70 27.5 124t77 92t118 58.5t148.5 20.5q109 0 202 -26.5t160 -82.5l-96 -96q-53 41 -121.5 60.5t-146.5 19.5 q-111 0 -168.5 -44t-57.5 -122q0 -66 40 -102.5t137 -44.5l161 -15q66 -6 121.5 -22.5t94 -49t60 -81.5t21.5 -119q0 -74 -29.5 -130t-84 -96t-129 -60.5t-166.5 -20.5q-129 0 -229.5 32.5t-184.5 112.5zM401 1217l181 313h176l-221 -313h-136z" />
<glyph unicode="&#x15e;" horiz-adv-x="1204" d="M86 180l107 107q90 -90 182 -125t215 -35q160 0 252 70.5t92 199.5q0 57 -17.5 104.5t-52.5 78.5t-72.5 44t-117.5 25l-170 27q-174 29 -268 110q-111 98 -111 273q0 92 32.5 169t93 130t146.5 82.5t195 29.5q139 0 239.5 -37.5t194.5 -121.5l-100 -101q-68 61 -146 93 t-194 32q-147 0 -227 -73.5t-80 -196.5q0 -111 65 -168q35 -29 87 -49.5t110 -30.5l159 -24q51 -8 91 -17.5t71 -22t56.5 -27.5t48.5 -36q123 -105 123 -289q0 -96 -36 -172.5t-102.5 -130t-160 -82t-205.5 -28.5q-164 0 -281 45t-219 147zM440 -442l146 305h137l-121 -305 h-162z" />
<glyph unicode="&#x15f;" horiz-adv-x="1015" d="M88 133l98 98q59 -63 139.5 -89.5t174.5 -26.5q125 0 196.5 44t71.5 134q0 66 -40 102.5t-128 44.5l-166 15q-147 12 -224 78.5t-77 191.5q0 70 27.5 124t77 92t118 58.5t148.5 20.5q109 0 202 -26.5t160 -82.5l-96 -96q-53 41 -121.5 60.5t-146.5 19.5 q-111 0 -168.5 -44t-57.5 -122q0 -66 40 -102.5t137 -44.5l161 -15q66 -6 121.5 -22.5t94 -49t60 -81.5t21.5 -119q0 -74 -29.5 -130t-84 -96t-129 -60.5t-166.5 -20.5q-129 0 -229.5 32.5t-184.5 112.5zM346 -442l146 305h137l-121 -305h-162z" />
<glyph unicode="&#x160;" horiz-adv-x="1204" d="M86 180l107 107q90 -90 182 -125t215 -35q160 0 252 70.5t92 199.5q0 57 -17.5 104.5t-52.5 78.5t-72.5 44t-117.5 25l-170 27q-174 29 -268 110q-111 98 -111 273q0 92 32.5 169t93 130t146.5 82.5t195 29.5q139 0 239.5 -37.5t194.5 -121.5l-100 -101q-68 61 -146 93 t-194 32q-147 0 -227 -73.5t-80 -196.5q0 -111 65 -168q35 -29 87 -49.5t110 -30.5l159 -24q51 -8 91 -17.5t71 -22t56.5 -27.5t48.5 -36q123 -105 123 -289q0 -96 -36 -172.5t-102.5 -130t-160 -82t-205.5 -28.5q-164 0 -281 45t-219 147zM266 1913h142l184 -215l184 215 h142l-256 -314h-140z" />
<glyph unicode="&#x161;" horiz-adv-x="1015" d="M88 133l98 98q59 -63 139.5 -89.5t174.5 -26.5q125 0 196.5 44t71.5 134q0 66 -40 102.5t-128 44.5l-166 15q-147 12 -224 78.5t-77 191.5q0 70 27.5 124t77 92t118 58.5t148.5 20.5q109 0 202 -26.5t160 -82.5l-96 -96q-53 41 -121.5 60.5t-146.5 19.5 q-111 0 -168.5 -44t-57.5 -122q0 -66 40 -102.5t137 -44.5l161 -15q66 -6 121.5 -22.5t94 -49t60 -81.5t21.5 -119q0 -74 -29.5 -130t-84 -96t-129 -60.5t-166.5 -20.5q-129 0 -229.5 32.5t-184.5 112.5zM178 1530h141l185 -215l184 215h141l-256 -313h-139z" />
<glyph unicode="&#x162;" horiz-adv-x="1122" d="M61 1319v139h1000v-139h-422v-1319h-156v1319h-422zM399 -442l146 305h137l-121 -305h-162z" />
<glyph unicode="&#x163;" horiz-adv-x="679" d="M82 889v112h127v316h147v-316h215v-112h-215v-615q0 -70 33 -108.5t105 -38.5h77v-127h-104q-66 0 -114 21.5t-79.5 58.5t-48 86t-16.5 104v619h-127zM178 -442l146 305h137l-121 -305h-162z" />
<glyph unicode="&#x164;" horiz-adv-x="1122" d="M61 1319v139h1000v-139h-422v-1319h-156v1319h-422zM236 1913h141l184 -215l184 215h142l-256 -314h-139z" />
<glyph unicode="&#x165;" horiz-adv-x="679" d="M82 889v112h127v316h147v-316h215v-112h-215v-615q0 -70 33 -108.5t105 -38.5h77v-127h-104q-66 0 -114 21.5t-79.5 58.5t-48 86t-16.5 104v619h-127zM549 1194v334h158v-193z" />
<glyph unicode="&#x16e;" horiz-adv-x="1398" d="M190 481v977h156v-964q0 -84 24.5 -152t70.5 -115t111.5 -73.5t145.5 -26.5t145.5 26.5t111.5 73.5t72 115t26 152v964h155v-977q0 -109 -37.5 -200t-106.5 -156.5t-162 -101t-204 -35.5t-204 35.5t-160.5 101t-105.5 157t-38 199.5zM457 1790q0 49 19.5 93t52 77 t76.5 52.5t93 19.5t93.5 -18.5t77 -51.5t52 -77t19.5 -95q0 -49 -19.5 -94t-52 -78t-76.5 -52.5t-94 -19.5q-49 0 -93 19.5t-76.5 52.5t-52 78t-19.5 94zM557 1790q0 -59 41 -100t100 -41t100.5 41t41.5 100t-41 99t-101 40q-59 0 -100 -40t-41 -99z" />
<glyph unicode="&#x16f;" horiz-adv-x="1150" d="M174 365v643h148v-621q0 -135 65.5 -201.5t179.5 -66.5q115 0 183.5 67.5t68.5 200.5v621h148v-1008h-146v113q-53 -61 -125.5 -93t-158.5 -32q-166 0 -261 94q-53 53 -77.5 123.5t-24.5 159.5zM334 1407q0 49 19.5 93t52 77t76.5 52.5t93 19.5t93.5 -18.5t77 -51.5 t52 -77t19.5 -95q0 -49 -19.5 -94t-52 -78t-76.5 -52.5t-94 -19.5q-49 0 -93 19.5t-76.5 52.5t-52 78t-19.5 94zM434 1407q0 -59 41 -100t100 -41t100.5 41t41.5 100t-41 99t-101 40q-59 0 -100 -40t-41 -99z" />
<glyph unicode="&#x170;" horiz-adv-x="1398" d="M190 481v977h156v-964q0 -84 24.5 -152t70.5 -115t111.5 -73.5t145.5 -26.5t145.5 26.5t111.5 73.5t72 115t26 152v964h155v-977q0 -109 -37.5 -200t-106.5 -156.5t-162 -101t-204 -35.5t-204 35.5t-160.5 101t-105.5 157t-38 199.5zM444 1599l183 314h174l-221 -314 h-136zM778 1599l183 314h174l-224 -314h-133z" />
<glyph unicode="&#x171;" horiz-adv-x="1150" d="M174 365v643h148v-621q0 -135 65.5 -201.5t179.5 -66.5q115 0 183.5 67.5t68.5 200.5v621h148v-1008h-146v113q-53 -61 -125.5 -93t-158.5 -32q-166 0 -261 94q-53 53 -77.5 123.5t-24.5 159.5zM309 1217l183 313h174l-222 -313h-135zM643 1217l182 313h174l-223 -313 h-133z" />
<glyph unicode="&#x179;" horiz-adv-x="1138" d="M117 0v147l729 1172h-701v139h877v-131l-735 -1188h735v-139h-905zM469 1599l180 314h176l-221 -314h-135z" />
<glyph unicode="&#x17a;" horiz-adv-x="940" d="M102 0v127l562 750h-531v131h701v-125l-564 -752h564v-131h-732zM365 1217l180 313h176l-221 -313h-135z" />
<glyph unicode="&#x17b;" horiz-adv-x="1138" d="M117 0v147l729 1172h-701v139h877v-131l-735 -1188h735v-139h-905zM487 1681v152h164v-152h-164z" />
<glyph unicode="&#x17c;" horiz-adv-x="940" d="M102 0v127l562 750h-531v131h701v-125l-564 -752h564v-131h-732zM389 1298v152h164v-152h-164z" />
<glyph unicode="&#x17d;" horiz-adv-x="1138" d="M117 0v147l729 1172h-701v139h877v-131l-735 -1188h735v-139h-905zM256 1913h141l185 -215l184 215h141l-256 -314h-139z" />
<glyph unicode="&#x17e;" horiz-adv-x="940" d="M102 0v127l562 750h-531v131h701v-125l-564 -752h564v-131h-732zM158 1530h141l184 -215l185 215h141l-256 -313h-139z" />
<glyph unicode="&#x192;" horiz-adv-x="825" d="M61 676v110h222l69 406q10 55 35 104.5t63.5 86t90 58t116.5 21.5h107v-127h-102q-72 0 -111 -39t-51 -108l-70 -402h215v-110h-235l-199 -1127h-148l199 1127h-201z" />
<glyph unicode="&#x218;" horiz-adv-x="1204" d="M86 180l107 107q90 -90 182 -125t215 -35q160 0 252 70.5t92 199.5q0 57 -17.5 104.5t-52.5 78.5t-72.5 44t-117.5 25l-170 27q-174 29 -268 110q-111 98 -111 273q0 92 32.5 169t93 130t146.5 82.5t195 29.5q139 0 239.5 -37.5t194.5 -121.5l-100 -101q-68 61 -146 93 t-194 32q-147 0 -227 -73.5t-80 -196.5q0 -111 65 -168q35 -29 87 -49.5t110 -30.5l159 -24q51 -8 91 -17.5t71 -22t56.5 -27.5t48.5 -36q123 -105 123 -289q0 -96 -36 -172.5t-102.5 -130t-160 -82t-205.5 -28.5q-164 0 -281 45t-219 147zM440 -442l146 305h137l-121 -305 h-162z" />
<glyph unicode="&#x219;" horiz-adv-x="1015" d="M88 133l98 98q59 -63 139.5 -89.5t174.5 -26.5q125 0 196.5 44t71.5 134q0 66 -40 102.5t-128 44.5l-166 15q-147 12 -224 78.5t-77 191.5q0 70 27.5 124t77 92t118 58.5t148.5 20.5q109 0 202 -26.5t160 -82.5l-96 -96q-53 41 -121.5 60.5t-146.5 19.5 q-111 0 -168.5 -44t-57.5 -122q0 -66 40 -102.5t137 -44.5l161 -15q66 -6 121.5 -22.5t94 -49t60 -81.5t21.5 -119q0 -74 -29.5 -130t-84 -96t-129 -60.5t-166.5 -20.5q-129 0 -229.5 32.5t-184.5 112.5zM346 -442l146 305h137l-121 -305h-162z" />
<glyph unicode="&#x2c6;" d="M186 1217l256 313h140l256 -313h-142l-184 213l-184 -213h-142z" />
<glyph unicode="&#x2c7;" d="M186 1530h142l184 -215l184 215h142l-256 -313h-140z" />
<glyph unicode="&#x2d8;" d="M174 1489h119q10 -80 69.5 -124t153.5 -44t152.5 44t68.5 124h113q-25 -285 -334 -285q-317 0 -342 285z" />
<glyph unicode="&#x2d9;" d="M430 1298v152h164v-152h-164z" />
<glyph unicode="&#x2da;" d="M270 1407q0 49 19.5 93t52.5 77t77 52.5t93 19.5t93 -18.5t77 -51.5t52.5 -77t19.5 -95q0 -49 -19.5 -94t-52.5 -78t-77 -52.5t-93 -19.5t-93 19.5t-77 52.5t-52.5 78t-19.5 94zM371 1407q0 -59 41 -100t100 -41t100 41t41 100t-41 99t-100 40t-100 -40t-41 -99z" />
<glyph unicode="&#x2db;" d="M381 -137h135l146 -305h-160z" />
<glyph unicode="&#x2dc;" d="M182 1343q35 35 62.5 55.5t50 32t43 14.5t39.5 3q45 0 75.5 -13.5t69.5 -35.5q33 -20 58.5 -30.5t56.5 -10.5q23 0 49.5 10t71.5 55l76 -73q-70 -70 -115 -87.5t-80 -17.5q-43 0 -76 12.5t-69 34.5q-29 16 -56.5 29.5t-58.5 13.5q-25 0 -50.5 -10t-70.5 -55z" />
<glyph unicode="&#x2dd;" d="M225 1217l183 313h174l-222 -313h-135zM559 1217l182 313h174l-223 -313h-133z" />
<glyph unicode="&#x401;" horiz-adv-x="1228" d="M211 0v1458h905v-139h-749v-514h639v-139h-639v-527h749v-139h-905zM324 1683v183h147v-183h-147zM758 1683v183h147v-183h-147z" />
<glyph unicode="&#x410;" horiz-adv-x="1214" d="M6 0l537 1458h131l534 -1458h-166l-116 330h-637l-117 -330h-166zM336 465h545l-271 770z" />
<glyph unicode="&#x411;" horiz-adv-x="1304" d="M211 0v1458h901v-139h-745v-506h411q96 0 176 -25.5t137.5 -77t89 -127t31.5 -175.5t-31.5 -176t-89 -127.5t-137.5 -78t-176 -26.5h-567zM367 139h397q135 0 214 73t79 196t-79 194.5t-214 71.5h-397v-535z" />
<glyph unicode="&#x412;" horiz-adv-x="1368" d="M211 0v1458h549q94 0 174 -26.5t136 -76.5t88 -122t32 -164q0 -117 -61.5 -201t-153.5 -118q104 -39 170.5 -127.5t66.5 -219.5q0 -98 -31.5 -173.5t-89 -127t-137.5 -77t-176 -25.5h-567zM367 139h397q135 0 214 73t79 196t-79 194.5t-214 71.5h-397v-535zM367 813h381 q61 0 113 15.5t90 46t60.5 78.5t22.5 114t-22.5 113t-60.5 77.5t-90 46t-113 15.5h-381v-506z" />
<glyph unicode="&#x413;" horiz-adv-x="1112" d="M211 0v1458h901v-139h-745v-1319h-156z" />
<glyph unicode="&#x414;" horiz-adv-x="1374" d="M10 139h111l485 1319h164l485 -1319h109v-463h-139v324h-1075v-324h-140v463zM285 139h805l-388 1096h-28z" />
<glyph unicode="&#x415;" horiz-adv-x="1228" d="M211 0v1458h905v-139h-749v-514h639v-139h-639v-527h749v-139h-905z" />
<glyph unicode="&#x416;" horiz-adv-x="1810" d="M6 0l596 776l-524 682h196l480 -627h73v627h156v-627h74l479 627h197l-525 -682l596 -776h-196l-529 692h-96v-692h-156v692h-96l-528 -692h-197z" />
<glyph unicode="&#x417;" horiz-adv-x="1095" d="M80 371h156q6 -66 32.5 -113t67.5 -75.5t93 -42t108 -13.5q63 0 119.5 18.5t96.5 54.5t63.5 86t23.5 115q0 129 -65.5 203t-213.5 74h-51v139h49q131 0 192.5 68.5t61.5 187.5q0 129 -80 193.5t-196 64.5q-123 0 -196 -61.5t-85 -171.5h-156q6 88 43 156.5t95.5 116.5 t135.5 73.5t165 25.5q94 0 174 -28.5t136 -79.5t88 -124t32 -161q0 -236 -197 -323q223 -85 223 -357q0 -100 -35.5 -176t-97 -128t-145.5 -78.5t-180 -26.5q-92 0 -173 22.5t-142.5 70.5t-99.5 119.5t-42 170.5z" />
<glyph unicode="&#x418;" horiz-adv-x="1499" d="M211 0v1458h156v-1192l774 1192h147v-1458h-155v1196l-775 -1196h-147z" />
<glyph unicode="&#x419;" horiz-adv-x="1499" d="M211 0v1458h156v-1192l774 1192h147v-1458h-155v1196l-775 -1196h-147zM412 1939h118q10 -80 69.5 -123.5t154.5 -43.5q94 0 152.5 44t68.5 123h112q-25 -285 -333 -284q-317 0 -342 284z" />
<glyph unicode="&#x41a;" horiz-adv-x="1302" d="M211 0v1458h156v-837l680 837h190l-459 -563l525 -895h-185l-444 776l-307 -368v-408h-156z" />
<glyph unicode="&#x41b;" horiz-adv-x="1220" d="M0 0l537 1458h147l537 -1458h-166l-439 1235h-12l-438 -1235h-166z" />
<glyph unicode="&#x41c;" horiz-adv-x="1671" d="M211 0v1458h156l475 -1034l463 1034h155v-1458h-155v1108l-400 -879h-133l-405 879v-1108h-156z" />
<glyph unicode="&#x41d;" horiz-adv-x="1425" d="M211 0v1458h156v-653h692v653h155v-1458h-155v666h-692v-666h-156z" />
<glyph unicode="&#x41e;" horiz-adv-x="1331" d="M156 729q0 117 2 204t15 155.5t41 124t79 106.5q152 152 373 151q221 0 372 -151q51 -51 79 -106.5t41 -124t15.5 -155.5t2.5 -204t-2.5 -204t-15.5 -155.5t-40.5 -124t-79.5 -106.5q-74 -74 -168 -112.5t-204 -38.5q-221 0 -373 151q-51 51 -79 106.5t-41 124t-15 155.5 t-2 204zM311 729q0 -115 3 -193.5t13.5 -134t31 -95.5t55.5 -75q47 -49 113.5 -76.5t138.5 -27.5t138 27.5t114 76.5q35 35 55 75t30.5 95.5t13.5 134t3 193.5t-3 193.5t-13.5 134t-31 95.5t-54.5 75q-47 49 -114 76.5t-138 27.5q-72 0 -138.5 -27.5t-113.5 -76.5 q-35 -35 -55.5 -75t-31 -95.5t-13.5 -134t-3 -193.5z" />
<glyph unicode="&#x41f;" horiz-adv-x="1425" d="M211 0v1458h1003v-1458h-155v1319h-692v-1319h-156z" />
<glyph unicode="&#x420;" horiz-adv-x="1290" d="M211 0v1458h543q100 0 183 -29.5t142.5 -86t92 -135.5t32.5 -177t-32.5 -178t-92 -135t-142.5 -86t-183 -31h-387v-600h-156zM367 739h372q137 0 223.5 73t86.5 218t-86 217t-224 72h-372v-580z" />
<glyph unicode="&#x421;" horiz-adv-x="1304" d="M156 729q0 117 2 204t15 155.5t41 124t79 106.5q74 74 169 112.5t204 38.5q98 0 182 -29.5t150.5 -85t110.5 -136t62 -183.5h-159q-29 135 -119 215t-227 80q-72 0 -138.5 -26.5t-113.5 -75.5q-35 -35 -55.5 -75t-31 -96.5t-13.5 -135t-3 -193.5t3 -193.5t13.5 -135 t31 -96.5t55.5 -75q47 -49 113.5 -75.5t138.5 -26.5q137 0 229 80t121 215h155q-18 -102 -62 -183t-110.5 -136.5t-150.5 -85t-182 -29.5q-109 0 -204 39t-169 112q-51 51 -79 106.5t-41 124t-15 155.5t-2 204z" />
<glyph unicode="&#x422;" horiz-adv-x="1019" d="M10 1319v139h1000v-139h-422v-1319h-156v1319h-422z" />
<glyph unicode="&#x423;" horiz-adv-x="954" d="M0 1458h158l342 -831l338 831h157l-518 -1255q-47 -117 -117.5 -160t-162.5 -43h-80v139h80q47 0 79.5 28t71.5 103l72 162z" />
<glyph unicode="&#x424;" horiz-adv-x="1425" d="M76 729q0 170 48 277.5t126 169t179 85t206 23.5v174h156v-174q104 0 205.5 -23.5t179 -85t126 -170t48.5 -278.5t-48.5 -277.5t-126 -169t-179 -85t-205.5 -23.5v-172h-156v172q-104 0 -205.5 23.5t-179.5 85t-126 170t-48 278.5zM231 727q0 -82 17.5 -144.5 t45.5 -107.5t64.5 -75.5t73.5 -49.5q88 -45 203 -49v854q-115 -4 -203 -49q-37 -20 -73.5 -51t-64.5 -76t-45.5 -107.5t-17.5 -144.5zM791 301q113 4 200 49q37 18 74 49t65.5 76t46 107.5t17.5 144.5t-17.5 144.5t-46 107.5t-65.5 75.5t-74 51.5q-88 45 -200 49v-854z" />
<glyph unicode="&#x425;" horiz-adv-x="1067" d="M0 0l446 748l-417 710h180l323 -575l324 575h180l-420 -710l451 -748h-180l-355 612l-356 -612h-176z" />
<glyph unicode="&#x426;" horiz-adv-x="1425" d="M211 0v1458h156v-1319h692v1319h155v-1319h140v-463h-140v324h-1003z" />
<glyph unicode="&#x427;" horiz-adv-x="1230" d="M123 1053v405h156v-395q0 -74 23.5 -135.5t65.5 -105.5t97 -67.5t121 -23.5h278v727h156v-1458h-156v592h-278q-96 0 -180 30.5t-147.5 90t-99.5 144.5t-36 196z" />
<glyph unicode="&#x428;" horiz-adv-x="2109" d="M211 0v1458h156v-1319h610v1319h156v-1319h610v1319h155v-1458h-1687z" />
<glyph unicode="&#x429;" horiz-adv-x="2109" d="M211 0v1458h156v-1319h610v1319h156v-1319h610v1319h155v-1319h140v-463h-140v324h-1687z" />
<glyph unicode="&#x42a;" horiz-adv-x="1480" d="M33 1319v139h516v-645h412q96 0 176 -25.5t137 -77t89 -127t32 -175.5t-32 -176t-89 -127.5t-137 -78t-176 -26.5h-568v1319h-360zM549 139h397q135 0 214 73t79 196t-79 194.5t-214 71.5h-397v-535z" />
<glyph unicode="&#x42b;" horiz-adv-x="1720" d="M211 0v1458h156v-645h411q96 0 176 -25.5t137.5 -77t89 -127t31.5 -175.5t-31.5 -176t-89 -127.5t-137.5 -78t-176 -26.5h-567zM367 139h397q135 0 214 73t79 196t-79 194.5t-214 71.5h-397v-535zM1354 0v1458h155v-1458h-155z" />
<glyph unicode="&#x42c;" horiz-adv-x="1298" d="M211 0v1458h156v-645h411q96 0 176 -25.5t137.5 -77t89 -127t31.5 -175.5t-31.5 -176t-89 -127.5t-137.5 -78t-176 -26.5h-567zM367 139h397q135 0 214 73t79 196t-79 194.5t-214 71.5h-397v-535z" />
<glyph unicode="&#x42d;" horiz-adv-x="1304" d="M133 422h156q29 -135 121 -215t229 -80q72 0 138.5 26.5t113.5 75.5q31 33 51.5 69t30.5 85t15 115.5t5 160.5h-409v140h409q0 94 -5 160.5t-15 115.5t-30.5 85t-51.5 69q-47 49 -113.5 75.5t-138.5 26.5q-137 0 -227 -80t-119 -215h-160q18 102 62.5 183t111 136.5 t150.5 85t182 29.5q109 0 204 -38.5t169 -112.5q51 -51 78.5 -106.5t41 -124t15.5 -155.5t2 -204t-2 -204t-15.5 -155.5t-41 -124t-78.5 -106.5q-74 -74 -169 -112.5t-204 -38.5q-98 0 -182 29.5t-150.5 85t-110.5 136t-63 183.5z" />
<glyph unicode="&#x42e;" horiz-adv-x="1755" d="M211 0v1458h156v-659h213q0 98 4 174t18 137t41 111.5t74 97.5q152 152 373 151q220 1 372 -151q51 -51 79 -106.5t41 -124t15 -155.5t2 -204t-2 -204t-15 -155.5t-41 -124t-79 -106.5q-74 -74 -168 -112.5t-204 -38.5q-221 0 -373 151q-47 47 -74 97.5t-41 112t-18 137 t-4 173.5h-213v-659h-156zM735 729q0 -115 3 -193.5t13.5 -134t31 -95.5t55.5 -75q47 -49 113.5 -76.5t138.5 -27.5t138 27.5t113 76.5q35 35 55.5 75t31 95.5t13.5 134t3 193.5t-3 193.5t-13.5 134t-31 95.5t-55.5 75q-47 49 -113.5 76.5t-137.5 27.5q-72 0 -138.5 -27.5 t-113.5 -76.5q-35 -35 -55.5 -75t-31 -95.5t-13.5 -134t-3 -193.5z" />
<glyph unicode="&#x42f;" horiz-adv-x="1298" d="M68 0l346 662q-141 29 -229.5 130t-88.5 261q0 94 32 169.5t89 128t136 80t175 27.5h559v-1458h-155v647h-350l-332 -647h-182zM252 1051q0 -135 81 -201t210 -66h389v535h-389q-129 0 -210 -66.5t-81 -201.5z" />
<glyph unicode="&#x430;" horiz-adv-x="1077" d="M104 285q0 133 89.5 211.5t259.5 78.5h303v97q0 111 -59.5 166t-198.5 55q-98 0 -153.5 -25.5t-100.5 -89.5l-101 92q68 88 151 119t206 31q205 0 304 -85t99 -251v-684h-147v96q-61 -61 -126 -84.5t-165 -23.5q-104 0 -171 21.5t-114 70.5q-37 37 -56.5 91t-19.5 114z M248 287q0 -88 55 -130t176 -42q66 0 122 10t104 57q51 49 51 174v109h-283q-225 0 -225 -178z" />
<glyph unicode="&#x431;" horiz-adv-x="1081" d="M131 504q0 154 3 265.5t13 176.5q10 66 34 124t55 104q31 43 69.5 73.5t69.5 50.5q61 41 162 62q72 12 94 31q25 18 24 55h193q-6 -82 -60 -131q-29 -23 -75.5 -42.5t-112.5 -33.5q-109 -20 -158 -45q-33 -16 -58.5 -41t-39.5 -49q-16 -29 -36.5 -86t-22.5 -111 q25 31 61 56q31 23 79 40t118 17q92 0 163.5 -31t124.5 -84q76 -78 99.5 -181t23.5 -220t-23.5 -220.5t-99.5 -181.5q-53 -53 -124.5 -83.5t-163.5 -30.5t-164 30.5t-125 83.5q-39 39 -62.5 85t-37 96.5t-18.5 105.5t-5 115zM279 504q0 -43 2 -86t11 -84t24.5 -78t43.5 -63 q74 -74 183 -74q110 0 184 74q27 27 43 63.5t24.5 77.5t10.5 84t2 86t-2 86t-10.5 84t-24.5 76.5t-43 64.5q-74 74 -184 74q-109 0 -183 -74q-29 -29 -44 -64.5t-24 -76.5t-11 -84t-2 -86z" />
<glyph unicode="&#x432;" horiz-adv-x="1075" d="M184 0v1008h418q133 0 215 -71t82 -198q0 -80 -42 -139t-105 -82q72 -27 117.5 -87t45.5 -152q0 -137 -81.5 -208t-217.5 -71h-432zM332 131h250q86 0 136 42t50 116t-50 115.5t-136 41.5h-250v-315zM332 578h239q78 0 129.5 35.5t51.5 113.5t-51.5 114t-129.5 36h-239 v-299z" />
<glyph unicode="&#x433;" horiz-adv-x="872" d="M184 0v1008h688v-131h-540v-877h-148z" />
<glyph unicode="&#x434;" horiz-adv-x="1132" d="M16 131h107l321 877h242l324 -877h106v-405h-131v274h-838v-274h-131v405zM281 131h569l-262 746h-43z" />
<glyph unicode="&#x435;" horiz-adv-x="1085" d="M129 504q0 246 110.5 381t303.5 135q197 0 305 -131t108 -357v-67h-680q0 -166 76 -257t221 -91q88 0 146.5 27.5t118.5 86.5l100 -88q-39 -39 -77 -67.5t-81 -48t-95 -29.5t-116 -10q-100 0 -181 30.5t-138 94t-89 161t-32 230.5zM276 575h533q-2 31 -4 53.5t-5 41 t-8.5 36t-13.5 37.5q-29 70 -92 111t-143 41t-143.5 -41t-92.5 -111q-16 -41 -22 -73.5t-9 -94.5z" />
<glyph unicode="&#x436;" horiz-adv-x="1333" d="M0 0l414 537l-365 471h168l328 -428h47v428h147v-428h47l328 428h168l-364 -471l415 -537h-168l-362 469h-64v-469h-147v469h-64l-360 -469h-168z" />
<glyph unicode="&#x437;" horiz-adv-x="911" d="M92 254l148 14q10 -82 70.5 -115.5t138.5 -33.5q90 0 150 43t60 123q0 78 -46 122t-148 44h-23v131h23q92 0 134 41t42 112q0 78 -54.5 116t-135.5 38q-88 0 -137.5 -38t-59.5 -103l-148 12q6 61 34 109.5t74 82t106.5 51t130.5 17.5q74 0 136 -19.5t107 -56.5t69.5 -87 t24.5 -112q0 -162 -137 -225q156 -55 156 -248q0 -70 -27.5 -123t-76 -88.5t-114 -54t-140.5 -18.5q-72 0 -135.5 16t-111.5 49t-78 83t-32 118z" />
<glyph unicode="&#x438;" horiz-adv-x="1191" d="M184 0v1008h148v-783l534 783h142v-1008h-148v786l-534 -786h-142z" />
<glyph unicode="&#x439;" horiz-adv-x="1191" d="M184 0v1008h148v-783l534 783h142v-1008h-148v786l-534 -786h-142zM250 1458h119q10 -80 69.5 -124t153.5 -44t152.5 44t68.5 124h113q-25 -285 -334 -284q-317 0 -342 284z" />
<glyph unicode="&#x43a;" horiz-adv-x="1030" d="M184 0v1008h148v-525l454 525h185l-342 -385l401 -623h-182l-320 516l-196 -225v-291h-148z" />
<glyph unicode="&#x43b;" horiz-adv-x="919" d="M-10 0l368 1008h199l373 -1008h-162l-309 877l-312 -877h-157z" />
<glyph unicode="&#x43c;" horiz-adv-x="1351" d="M184 0v1008h170l326 -668l315 668h172v-1008h-147v743l-283 -585h-119l-286 585v-743h-148z" />
<glyph unicode="&#x43d;" horiz-adv-x="1161" d="M184 0v1008h148v-439h497v439h148v-1008h-148v438h-497v-438h-148z" />
<glyph unicode="&#x43e;" horiz-adv-x="1085" d="M131 504q0 57 5 113.5t18.5 106.5t37 96t62.5 85q53 53 125 84t164 31t163.5 -31t124.5 -84q76 -78 99.5 -181t23.5 -220t-23.5 -220.5t-99.5 -181.5q-53 -53 -124.5 -83.5t-163.5 -30.5t-164 30.5t-125 83.5q-39 39 -62.5 85t-37 96.5t-18.5 105.5t-5 115zM279 504 q0 -43 2 -86t11 -84t24.5 -78t43.5 -63q74 -74 183 -74q111 0 184 74q27 27 43 63.5t24.5 77.5t10.5 84t2 86t-2 86t-10.5 84t-24.5 76.5t-43 64.5q-74 74 -184 74q-109 0 -183 -74q-29 -29 -44 -64.5t-24 -76.5t-11 -84t-2 -86z" />
<glyph unicode="&#x43f;" horiz-adv-x="1161" d="M184 0v1008h793v-1008h-148v877h-497v-877h-148z" />
<glyph unicode="&#x440;" horiz-adv-x="1116" d="M184 -451v1459h148v-119q61 80 130.5 105.5t153.5 25.5q78 0 141.5 -23.5t104.5 -64.5q39 -39 62.5 -88t37 -105.5t18.5 -116t5 -118.5t-5 -118.5t-18.5 -116t-37 -105.5t-62.5 -88q-41 -41 -104.5 -64.5t-141.5 -23.5q-84 0 -153.5 26.5t-130.5 104.5v-570h-148z M332 504q0 -74 9 -143.5t35.5 -123t77 -86t132.5 -32.5t132 32.5t76.5 86t35 123t8.5 143.5t-8.5 143.5t-35 122.5t-76.5 86t-132 33t-132.5 -33t-77 -86t-35.5 -122.5t-9 -143.5z" />
<glyph unicode="&#x441;" horiz-adv-x="1003" d="M129 504q0 129 34 225t94 160.5t141 97.5t177 33q104 0 179 -33t153 -117l-100 -94q-57 63 -108.5 88t-123.5 25q-74 0 -133 -29t-100 -86q-35 -49 -50.5 -111.5t-15.5 -158.5t15.5 -158.5t50.5 -112.5q41 -57 100.5 -85.5t132.5 -28.5q72 0 123.5 25.5t108.5 88.5 l100 -96q-78 -84 -152.5 -116.5t-179.5 -32.5q-96 0 -177 31.5t-141 96t-94 162t-34 226.5z" />
<glyph unicode="&#x442;" horiz-adv-x="813" d="M10 877v131h793v-131h-322v-877h-147v877h-324z" />
<glyph unicode="&#x443;" horiz-adv-x="854" d="M-16 1008h159l277 -809l274 809h160l-459 -1252q-29 -80 -71 -118q-41 -39 -92.5 -54.5t-104.5 -15.5h-64v131h46q76 0 108.5 27.5t56.5 97.5l72 196z" />
<glyph unicode="&#x444;" horiz-adv-x="1304" d="M92 504q0 154 42 252t109.5 153.5t155.5 77t181 21.5v356h147v-356q92 0 179 -21.5t154.5 -77t109.5 -154t42 -251.5q0 -154 -42 -252t-109.5 -153.5t-154.5 -77t-179 -21.5v-356h-147v356q-92 0 -180.5 21.5t-156 77t-109.5 153.5t-42 252zM240 504q0 -98 23.5 -165 t59 -111t77.5 -67.5t80 -33.5t65.5 -12t34.5 -2v782q-6 0 -34 -2t-66 -12.5t-80 -34t-77.5 -67.5t-59 -110.5t-23.5 -164.5zM727 113q6 0 33.5 2t64.5 12t80 33.5t78 67.5t58.5 111t23.5 165t-23.5 164.5t-58.5 110.5t-78 67.5t-80 34t-64.5 12.5t-33.5 2v-782z" />
<glyph unicode="&#x445;" horiz-adv-x="843" d="M0 0l342 514l-328 494h179l231 -373l227 373h178l-327 -494l342 -514h-178l-242 391l-246 -391h-178z" />
<glyph unicode="&#x446;" horiz-adv-x="1161" d="M184 0v1008h148v-877h497v877h148v-877h131v-405h-131v274h-793z" />
<glyph unicode="&#x447;" horiz-adv-x="960" d="M76 727v281h147v-260q0 -49 18.5 -90.5t49.5 -71t70.5 -47t84.5 -17.5h183v486h147v-1008h-147v391h-205q-72 0 -135.5 22.5t-110.5 65.5t-74.5 105.5t-27.5 142.5z" />
<glyph unicode="&#x448;" horiz-adv-x="1665" d="M184 0v1008h148v-877h428v877h147v-877h426v877h148v-1008h-1297z" />
<glyph unicode="&#x449;" horiz-adv-x="1665" d="M184 0v1008h148v-877h428v877h147v-877h426v877h148v-877h131v-403h-131v272h-1297z" />
<glyph unicode="&#x44a;" horiz-adv-x="1196" d="M49 877v131h426v-361h305q135 0 218 -81t83 -240q0 -160 -83 -243t-218 -83h-452v877h-279zM475 131h275q86 0 135 52.5t49 140.5q0 90 -49 141t-135 51h-275v-385z" />
<glyph unicode="&#x44b;" horiz-adv-x="1415" d="M184 0v1008h148v-361h305q135 0 218 -81t83 -240q0 -160 -83 -243t-218 -83h-453zM332 131h274q86 0 135.5 52.5t49.5 140.5q0 90 -49.5 141t-135.5 51h-274v-385zM1083 0v1008h148v-1008h-148z" />
<glyph unicode="&#x44c;" horiz-adv-x="1052" d="M184 0v1008h148v-361h305q135 0 218 -81t83 -240q0 -160 -83 -243t-218 -83h-453zM332 131h274q86 0 135.5 52.5t49.5 140.5q0 90 -49.5 141t-135.5 51h-274v-385z" />
<glyph unicode="&#x44d;" horiz-adv-x="993" d="M94 137l101 96q57 -63 108 -88.5t123 -25.5q74 0 133 28.5t100 85.5q29 41 44.5 89.5t19.5 115.5h-295v131h295q-4 68 -19.5 116t-44.5 89q-41 57 -100 86t-133 29q-72 0 -123 -24.5t-108 -88.5l-101 94q78 84 153 117t179 33q94 0 176 -33t142.5 -97.5t94 -160.5 t33.5 -225t-33.5 -226.5t-94 -162t-142.5 -96t-176 -31.5q-104 0 -179 32.5t-153 116.5z" />
<glyph unicode="&#x44e;" horiz-adv-x="1425" d="M184 0v1008h148v-439h145q4 98 29.5 183.5t91.5 152.5q53 53 125 84t164 31t164 -31t125 -84q76 -78 99 -181t23 -220t-23.5 -220.5t-98.5 -181.5q-53 -53 -125 -83.5t-164 -30.5t-164 30.5t-125 83.5q-66 66 -91.5 152t-29.5 184h-145v-438h-148zM623 504q0 -43 2 -86 t11 -84t24.5 -78t44.5 -63q74 -74 182 -74q110 0 184 74q27 27 43 63.5t24.5 77.5t10.5 84t2 86t-2 86t-10.5 84t-24.5 76.5t-43 64.5q-74 74 -184 74q-109 0 -182 -74q-29 -29 -44.5 -64.5t-24.5 -76.5t-11 -84t-2 -86z" />
<glyph unicode="&#x44f;" horiz-adv-x="1030" d="M102 0l228 430q-98 23 -152.5 95.5t-54.5 187.5q0 137 83 216t214 79h426v-1008h-148v430h-209l-221 -430h-166zM270 719q0 -90 51.5 -134t131.5 -44h245v356h-245q-80 0 -131.5 -45t-51.5 -133z" />
<glyph unicode="&#x451;" horiz-adv-x="1085" d="M129 504q0 246 110.5 381t303.5 135q197 0 305 -131t108 -357v-67h-680q0 -166 76 -257t221 -91q88 0 146.5 27.5t118.5 86.5l100 -88q-39 -39 -77 -67.5t-81 -48t-95 -29.5t-116 -10q-100 0 -181 30.5t-138 94t-89 161t-32 230.5zM252 1233v182h147v-182h-147zM276 575 h533q-2 31 -4 53.5t-5 41t-8.5 36t-13.5 37.5q-29 70 -92 111t-143 41t-143.5 -41t-92.5 -111q-16 -41 -22 -73.5t-9 -94.5zM686 1233v182h148v-182h-148z" />
<glyph unicode="&#x2000;" horiz-adv-x="1016" />
<glyph unicode="&#x2001;" horiz-adv-x="2032" />
<glyph unicode="&#x2002;" horiz-adv-x="1016" />
<glyph unicode="&#x2003;" horiz-adv-x="2032" />
<glyph unicode="&#x2004;" horiz-adv-x="677" />
<glyph unicode="&#x2005;" horiz-adv-x="508" />
<glyph unicode="&#x2006;" horiz-adv-x="338" />
<glyph unicode="&#x2007;" horiz-adv-x="338" />
<glyph unicode="&#x2008;" horiz-adv-x="254" />
<glyph unicode="&#x2009;" horiz-adv-x="406" />
<glyph unicode="&#x200a;" horiz-adv-x="112" />
<glyph unicode="&#x2010;" horiz-adv-x="872" d="M156 483v138h561v-138h-561z" />
<glyph unicode="&#x2011;" horiz-adv-x="872" d="M156 483v138h561v-138h-561z" />
<glyph unicode="&#x2012;" horiz-adv-x="872" d="M156 483v138h561v-138h-561z" />
<glyph unicode="&#x2013;" horiz-adv-x="1069" d="M106 483v138h857v-138h-857z" />
<glyph unicode="&#x2014;" horiz-adv-x="1871" d="M156 483v140h1560v-140h-1560z" />
<glyph unicode="&#x2018;" horiz-adv-x="538" d="M180 1286v172l178 162v-334h-178z" />
<glyph unicode="&#x2019;" horiz-adv-x="538" d="M180 1124v334h178v-172z" />
<glyph unicode="&#x201a;" horiz-adv-x="538" d="M180 -162v334h178v-172z" />
<glyph unicode="&#x201c;" horiz-adv-x="888" d="M180 1286v172l178 162v-334h-178zM528 1286v172l181 162v-334h-181z" />
<glyph unicode="&#x201d;" horiz-adv-x="888" d="M180 1124v334h178v-172zM528 1124v334h181v-172z" />
<glyph unicode="&#x201e;" horiz-adv-x="888" d="M180 -162v334h178v-172zM528 -162v334h181v-172z" />
<glyph unicode="&#x2020;" horiz-adv-x="1239" d="M152 911v131h391v416h147v-416h397v-131h-397v-911h-147v911h-391z" />
<glyph unicode="&#x2021;" horiz-adv-x="1239" d="M152 -33v131h391v813h-391v131h391v416h147v-416h397v-131h-397v-813h397v-131h-397v-418h-147v418h-391z" />
<glyph unicode="&#x2022;" horiz-adv-x="1089" d="M211 684q0 70 26.5 130t71.5 105.5t105.5 72t130.5 26.5t130 -26.5t105 -72t72 -105.5t27 -130t-27 -130t-72 -105.5t-105.5 -72t-129.5 -26.5q-70 0 -130.5 26.5t-105.5 72t-71.5 105.5t-26.5 130z" />
<glyph unicode="&#x2026;" horiz-adv-x="1550" d="M180 0v188h189v-188h-189zM680 0v188h188v-188h-188zM1182 0v188h188v-188h-188z" />
<glyph unicode="&#x202f;" horiz-adv-x="406" />
<glyph unicode="&#x2030;" horiz-adv-x="2414" d="M133 981v215q0 127 78 202t199 75q119 0 197.5 -75t78.5 -202v-215q0 -125 -79 -199.5t-197 -74.5q-121 0 -199 74.5t-78 199.5zM250 985q0 -84 38 -130t122 -46t121.5 47t37.5 129v207q0 82 -37.5 130t-121.5 48q-86 0 -123 -47t-37 -131v-207zM451 0l684 1458h122 l-684 -1458h-122zM1022 262v215q0 127 78 202t198 75q119 0 198 -75t79 -202v-215q0 -127 -79 -201.5t-198 -74.5q-121 0 -198.5 74.5t-77.5 201.5zM1139 266q0 -84 36.5 -131t122.5 -47q84 0 122 48t38 130v207q0 82 -38 130t-122 48q-86 0 -122.5 -47t-36.5 -131v-207z M1731 262v215q0 127 77.5 202t198.5 75q119 0 198 -75t79 -202v-215q0 -127 -79 -201.5t-198 -74.5q-121 0 -198.5 74.5t-77.5 201.5zM1847 266q0 -84 37 -131t123 -47q84 0 122 48t38 130v207q0 82 -38 130t-122 48q-86 0 -123 -47t-37 -131v-207z" />
<glyph unicode="&#x2039;" horiz-adv-x="671" d="M82 549l430 430v-184l-246 -246l246 -248v-182z" />
<glyph unicode="&#x203a;" horiz-adv-x="671" d="M160 119v182l248 248l-248 246v184l430 -430z" />
<glyph unicode="&#x205f;" horiz-adv-x="508" />
<glyph unicode="&#x20ac;" horiz-adv-x="1388" d="M96 532v103h135v201h-135v100h137q2 63 10.5 117.5t24 100.5t40 87t61.5 78q152 152 370 151q98 0 182.5 -29.5t151 -85t110.5 -136t62 -183.5h-158q-29 135 -119.5 215t-228.5 80q-150 0 -252 -102q-25 -27 -42 -54.5t-28 -62.5t-17.5 -78t-8.5 -98h449v-100h-453v-201 h453v-103h-449q2 -59 8.5 -104t16.5 -80t27.5 -63.5t43.5 -55.5q102 -102 252 -102q137 0 230.5 80t122.5 215h153q-18 -102 -63 -183t-110.5 -136.5t-149.5 -85t-183 -29.5q-219 0 -370 151q-39 39 -63.5 80t-40 88t-22.5 102.5t-10 122.5h-137z" />
<glyph unicode="&#x2122;" horiz-adv-x="1718" d="M74 1350v108h604v-108h-244v-766h-119v766h-241zM831 584v874h119l267 -530l266 530h116v-874h-116v630l-209 -413h-115l-209 413v-630h-119z" />
<glyph unicode="&#x2212;" horiz-adv-x="1069" d="M106 483v138h857v-138h-857z" />
<glyph unicode="&#xe000;" horiz-adv-x="1003" d="M0 0v1004h1004v-1004h-1004z" />
</font>
</defs>
</svg>
